<svg xmlns="http://www.w3.org/2000/svg" width="26" height="26" viewBox="0 0 26 26">
  <g fill="#D94A82" fill-rule="evenodd">
    <path d="M25.6042571 13.0004986C25.6042571 13.1012116 25.5989389 13.2009276 25.5966122 13.3013082 24.2162116 12.9350185 20.7158509 12.2473111 16.3968224 13.1959418 16.0162401 12.3260866 15.5941094 11.4339616 15.1221207 10.5265469 15.0825668 10.4504304 15.0440099 10.3779702 15.0047884 10.3028509 19.6252912 8.51959801 21.5890298 6.11710938 22.4017145 4.6173821 24.3917116 6.84736222 25.6042571 9.78466051 25.6042571 13.0004986zM21.0382656 3.30013494C20.6181293 4.29097869 19.0941378 6.8476946 14.1488935 8.70207812 11.9278878 4.64231108 10.2011406 2.20857812 9.23389631.970771307 10.4235071.59750142 11.6882372.395742898 12.9995014.395742898 16.0521378.395742898 18.8544872 1.48729972 21.0382656 3.30013494zM7.48354972 1.66944744C8.24970028 2.6064446 10.0279673 4.96472585 12.4131719 9.28308949 6.78254688 10.9802543 2.20957528 10.7765014.622430398 10.6285895 1.37694744 6.68349574 3.97454688 3.38522585 7.48354972 1.66944744zM.395410511 13.0004986C.395410511 12.8063849.401393466 12.6139332.410035511 12.4218139.952490057 12.4759929 1.79907812 12.5358224 2.89562074 12.5358224 5.34198437 12.5358224 9.02482528 12.2330185 13.2840241 10.8988196 13.3637969 11.0503878 13.4435696 11.2012912 13.5246719 11.356848 13.9311804 12.1389531 14.2984673 12.9104219 14.6341776 13.6669332 13.8633736 13.9092429 13.0746207 14.2037372 12.2729048 14.5670355 7.13155256 16.895402 4.72274858 20.2169389 3.86519176 21.6711293 1.71731108 19.4102372.395410511 16.3579332.395410511 13.0004986zM5.23262926 22.9162486C5.69032528 22.0500497 7.78435938 18.5782741 13.0151236 16.2090241 13.8022145 15.8523736 14.5776719 15.5675185 15.334848 15.3388366 17.0446435 19.6831264 17.6376207 23.2655866 17.8171094 24.6456548 16.3320071 25.2622315 14.7053082 25.6045895 12.9995014 25.6045895 10.0708452 25.6045895 7.37485938 24.5977912 5.23262926 22.9162486zM19.5195923 23.7834446C19.2596662 22.0497173 18.6148366 18.7896719 17.0994872 14.8974276 21.2789134 14.0657969 24.5864901 14.881473 25.4214446 15.1247798 24.7965582 18.7903366 22.5861889 21.9224134 19.5195923 23.7834446z"/>
  </g>
</svg>
