<svg xmlns="http://www.w3.org/2000/svg" width="25" height="21" viewBox="0 0 25 21">
  <defs>
    <linearGradient id="a" x1="50%" x2="50%" y1="2.28%" y2="100%">
      <stop stop-color="#54E0FF" offset="0%"/>
      <stop stop-color="#4CCAE6" offset="100%"/>
    </linearGradient>
  </defs>
  <path fill="url(#a)" fill-rule="evenodd" d="M25,2.48581246 C24.0800582,2.90756723 23.0919483,3.19280218 22.0540232,3.32085303 C23.1129231,2.66467713 23.9263522,1.62570373 24.3091424,0.387878886 C23.3180829,0.995273507 22.2205107,1.43667629 21.0521486,1.67414625 C20.1164757,0.643641819 18.7835925,0 17.3084738,0 C14.4755644,0 12.179151,2.37368328 12.179151,5.30157604 C12.179151,5.71723315 12.224378,6.12137246 12.3118822,6.5095901 C8.04940877,6.28871933 4.27001127,4.17791292 1.74025327,0.970205352 C1.29879919,1.75341582 1.04579062,2.66399961 1.04579062,3.63556 C1.04579062,5.47502057 1.95131224,7.09767547 3.32745602,8.04823281 C2.4868252,8.02079334 1.69568181,7.78230711 1.00416874,7.38528173 C1.00384101,7.4069623 1.00384101,7.42932039 1.00384101,7.45167847 C1.00384101,10.0204868 2.77195144,12.1634753 5.11817991,12.6502718 C4.6878687,12.7712087 4.23461629,12.8362504 3.76694371,12.8362504 C3.43659055,12.8362504 3.11508613,12.8030521 2.80210272,12.7410592 C3.45461577,14.8474617 5.34890276,16.3800068 7.59353452,16.4230291 C5.83820561,17.8448001 3.62667471,18.6923747 1.22342099,18.6923747 C0.809168611,18.6923747 0.401143127,18.6676453 -1.77635684e-15,18.6181865 C2.26986707,20.1222758 4.96578485,21 7.86227419,21 C17.2966755,21 22.4554941,12.9212789 22.4554941,5.91574583 C22.4554941,5.68572857 22.4505781,5.45706635 22.4407462,5.23009792 C23.4429485,4.48279589 24.3124197,3.54917649 25,2.48581246 Z"/>
</svg>
