<svg xmlns="http://www.w3.org/2000/svg" width="370" height="47" viewBox="0 0 370 47">
  <g fill="#FFFFFF" fill-rule="evenodd">
    <path d="M10.1110182,19.6763035 C11.6343582,8.46656231 22.6520037,4.47848132 31.4732054,8.82584888 C40.294407,-7.66540492 66.2266144,0.382614362 60.3812398,21.1493784 C62.1525654,0.346685705 39.9755684,-3.67732394 32.004603,11.1612116 C23.8565051,6.56234346 12.0594764,10.6941391 11.4217991,21.6883083 C2.31718535,21.2571644 -2.11112874,31.3531172 4.37192309,38.8262779 C-2.89051202,32.9699067 -1.19003941,20.5385912 10.1110182,19.6763035"/>
    <path d="M20.410142 20.5550883L27.2135226 20.5550883 27.2135226 39.0627637C26.8089973 39.1352008 26.441247 39.2076379 26.0367216 39.2438564 24.1611951 39.5336048 22.2488935 39.7871346 20.410142 39.9682273L20.410142 20.5550883 20.410142 20.5550883zM37.4185936 15.9872909L37.4185936 36.7509885C35.2120918 37.3257445 32.9320399 37.8645782 30.6152129 38.3315674L30.6152129 15.9872909 37.4185936 15.9872909zM48.4052403 22.1759196L49.8045624 31.7903964C47.0776783 33.042857 43.8484734 34.2953176 40.3322281 35.4004299L42.3056311 22.1759196C40.7269087 21.1444815 39.6863871 19.3394648 39.6863871 17.2397515 39.6863871 14.0349259 42.233871 11.4194935 45.3554357 11.4194935 48.4770004 11.4194935 51.0244843 14.0349259 51.0244843 17.2397515 51.0603643 19.3026277 49.9839627 21.1444815 48.4052403 22.1759196M10.205071 23.9809364L10.205071 39.9682273C10.2566022 39.9682273 7.11256797 39.1917852 10.3596646 39.9682273 13.6067613 40.7446693 17.0084516 39.9682273 17.0084516 39.9682273L17.0084516 23.9809364 10.205071 23.9809364z"/>
    <path d="M58.5354117,37.849071 C51.4167162,41.0905733 39.8224053,45.3154528 28.1928533,46.4809368 C15.8937211,47.7192635 4.1232048,45.7160879 0,37.9583351 C5.00423146,43.3486985 16.1756496,43.8221764 27.523273,42.0375291 C38.8356554,40.2528817 50.1480378,36.3557946 56.3152245,32.9686068 L54.8350997,29.6906831 L64.6321162,31.4024877 L59.9802954,40.9813092 L58.5354117,37.849071 L58.5354117,37.849071 Z"/>
    <g transform="translate(72.971 8.813)">
      <path d="M10.5696868 25.8930833C17.1418195 25.8930833 20.3183503 22.56 20.3183503 18.1400417 20.3183503 9.11897917 6.33431232 11.69125 6.33431232 7.85095833 6.33431232 6.40179167 7.57571517 5.42360417 9.80293793 5.42360417 12.2857436 5.42360417 14.9145967 6.256875 16.8862366 8.06833333L19.7706726 4.3005C17.3608906 2.09052083 14.1478479.9311875 10.277592.9311875 4.54523174.9311875 1.04009428 4.26427083 1.04009428 8.28570833 1.04009428 17.3792292 15.0606441 14.4446667 15.0606441 18.7197083 15.0606441 20.0964167 13.6731939 21.4006667 10.8252697 21.4006667 7.46617963 21.4006667 4.80081468 19.9152708 3.0847578 18.1400417L.273345461 22.0527917C2.53708007 24.3352292 5.89617014 25.8930833 10.5696868 25.8930833zM31.8047805 25.8930833C34.5431691 25.8930833 37.3180696 25.0598125 39.0706384 23.4657292L37.0259749 20.4949375C35.8941075 21.5818125 33.8129322 22.2339375 32.3159464 22.2339375 29.3219748 22.2339375 27.5328942 20.38625 27.2407994 18.1762708L40.3485531 18.1762708 40.3485531 17.1618542C40.3485531 11.4376458 36.7703919 7.52489583 31.5126857 7.52489583 26.145444 7.52489583 22.3847236 11.6187917 22.3847236 16.690875 22.3847236 22.3063958 26.4375388 25.8930833 31.8047805 25.8930833zM35.8575957 15.0605625L27.1677757 15.0605625C27.3868468 13.3215625 28.6282497 11.1840417 31.5126857 11.1840417 34.579681 11.1840417 35.7480602 13.3940208 35.8575957 15.0605625zM51.7254477 25.8930833C55.3401207 25.8930833 57.5308316 24.3352292 58.6992108 22.7049167L55.6687274 19.9152708C54.8289548 21.0746042 53.5510401 21.7991875 51.9445188 21.7991875 49.1331065 21.7991875 47.1614666 19.734125 47.1614666 16.690875 47.1614666 13.647625 49.1331065 11.6187917 51.9445188 11.6187917 53.5510401 11.6187917 54.8289548 12.2709167 55.6687274 13.5027083L58.6992108 10.6768333C57.5308316 9.08275 55.3401207 7.52489583 51.7254477 7.52489583 46.2851823 7.52489583 42.3784145 11.3289583 42.3784145 16.690875 42.3784145 22.0890208 46.2851823 25.8930833 51.7254477 25.8930833zM78.0722003 25.4583333L78.0722003 7.95964583 73.4351955 7.95964583 73.4351955 19.8065833C72.6319348 20.821 71.2079727 21.7991875 69.4188922 21.7991875 67.4472523 21.7991875 66.1693376 21.0021458 66.1693376 18.5747917L66.1693376 7.95964583 61.5323329 7.95964583 61.5323329 20.38625C61.5323329 23.7917917 63.3579253 25.8930833 67.2281812 25.8930833 70.1126173 25.8930833 72.2303045 24.5888333 73.4351955 23.2483542L73.4351955 25.4583333 78.0722003 25.4583333zM87.1123366 25.4583333L87.1123366 13.9012292C87.8790854 12.778125 89.9237489 11.908625 91.4572466 11.908625 91.9684125 11.908625 92.4065546 11.9448542 92.7351613 12.0173125L92.7351613 7.52489583C90.5444504 7.52489583 88.3537395 8.79291667 87.1123366 10.3507708L87.1123366 7.95964583 82.4753318 7.95964583 82.4753318 25.4583333 87.1123366 25.4583333zM97.7224824 6.07572917C99.2559801 6.07572917 100.497383 4.8439375 100.497383 3.3223125 100.497383 1.8006875 99.2559801.605125 97.7224824.605125 96.2254966.605125 94.9475819 1.8006875 94.9475819 3.3223125 94.9475819 4.8439375 96.2254966 6.07572917 97.7224824 6.07572917zM100.059241 25.4583333L100.059241 7.95964583 95.422236 7.95964583 95.422236 25.4583333 100.059241 25.4583333zM110.377292 25.8930833C112.31242 25.8930833 113.553823 25.385875 114.247548 24.7699792L113.261728 21.2919792C113.006145 21.5455833 112.348932 21.7991875 111.655206 21.7991875 110.632875 21.7991875 110.048685 20.9659167 110.048685 19.8790417L110.048685 11.9810833 113.626846 11.9810833 113.626846 7.95964583 110.048685 7.95964583 110.048685 3.17739583 105.375169 3.17739583 105.375169 7.95964583 102.454221 7.95964583 102.454221 11.9810833 105.375169 11.9810833 105.375169 21.1108333C105.375169 24.2265417 107.127737 25.8930833 110.377292 25.8930833zM115.985314 32.3056458C116.569504 32.4505625 117.737883 32.55925 118.285561 32.55925 121.316044 32.4867917 123.652803 31.6172917 124.967229 28.3204375L133.255419 7.95964583 128.253295 7.95964583 123.652803 20.1326458 119.05231 7.95964583 114.086698 7.95964583 121.243021 25.7119375 120.585807 27.1973333C120.147665 28.1392917 119.344404 28.4653542 118.139513 28.4653542 117.701371 28.4653542 117.08067 28.3566667 116.679039 28.1755208L115.985314 32.3056458zM144.460609 25.8930833C151.032742 25.8930833 154.209273 22.56 154.209273 18.1400417 154.209273 9.11897917 140.225235 11.69125 140.225235 7.85095833 140.225235 6.40179167 141.466637 5.42360417 143.69386 5.42360417 146.176666 5.42360417 148.805519 6.256875 150.777159 8.06833333L153.661595 4.3005C151.251813 2.09052083 148.03877.9311875 144.168514.9311875 138.436154.9311875 134.931017 4.26427083 134.931017 8.28570833 134.931017 17.3792292 148.951566 14.4446667 148.951566 18.7197083 148.951566 20.0964167 147.564116 21.4006667 144.716192 21.4006667 141.357102 21.4006667 138.691737 19.9152708 136.97568 18.1400417L134.164268 22.0527917C136.428002 24.3352292 139.787092 25.8930833 144.460609 25.8930833zM165.622679 25.8930833C169.237352 25.8930833 171.428063 24.3352292 172.596442 22.7049167L169.565959 19.9152708C168.726186 21.0746042 167.448272 21.7991875 165.84175 21.7991875 163.030338 21.7991875 161.058698 19.734125 161.058698 16.690875 161.058698 13.647625 163.030338 11.6187917 165.84175 11.6187917 167.448272 11.6187917 168.726186 12.2709167 169.565959 13.5027083L172.596442 10.6768333C171.428063 9.08275 169.237352 7.52489583 165.622679 7.52489583 160.182414 7.52489583 156.275646 11.3289583 156.275646 16.690875 156.275646 22.0890208 160.182414 25.8930833 165.622679 25.8930833zM183.608218 25.8930833C189.450114 25.8930833 192.955252 21.6905 192.955252 16.690875 192.955252 11.7274792 189.450114 7.52489583 183.608218 7.52489583 177.802834 7.52489583 174.297697 11.7274792 174.297697 16.690875 174.297697 21.6905 177.802834 25.8930833 183.608218 25.8930833zM183.608218 21.7991875C180.723782 21.7991875 179.117261 19.4442917 179.117261 16.690875 179.117261 13.9736875 180.723782 11.6187917 183.608218 11.6187917 186.492654 11.6187917 188.135688 13.9736875 188.135688 16.690875 188.135688 19.4442917 186.492654 21.7991875 183.608218 21.7991875zM200.827009 25.4583333L200.827009 13.9012292C201.593758 12.778125 203.638421 11.908625 205.171919 11.908625 205.683085 11.908625 206.121227 11.9448542 206.449833 12.0173125L206.449833 7.52489583C204.259122 7.52489583 202.068412 8.79291667 200.827009 10.3507708L200.827009 7.95964583 196.190004 7.95964583 196.190004 25.4583333 200.827009 25.4583333zM217.425098 25.8930833C220.163486 25.8930833 222.938387 25.0598125 224.690956 23.4657292L222.646292 20.4949375C221.514425 21.5818125 219.433249 22.2339375 217.936264 22.2339375 214.942292 22.2339375 213.153211 20.38625 212.861117 18.1762708L225.96887 18.1762708 225.96887 17.1618542C225.96887 11.4376458 222.390709 7.52489583 217.133003 7.52489583 211.765761 7.52489583 208.005041 11.6187917 208.005041 16.690875 208.005041 22.3063958 212.057856 25.8930833 217.425098 25.8930833zM221.477913 15.0605625L212.788093 15.0605625C213.007164 13.3215625 214.248567 11.1840417 217.133003 11.1840417 220.199998 11.1840417 221.368377 13.3940208 221.477913 15.0605625zM237.345765 25.8930833C240.960438 25.8930833 243.151149 24.3352292 244.319528 22.7049167L241.289045 19.9152708C240.449272 21.0746042 239.171357 21.7991875 237.564836 21.7991875 234.753424 21.7991875 232.781784 19.734125 232.781784 16.690875 232.781784 13.647625 234.753424 11.6187917 237.564836 11.6187917 239.171357 11.6187917 240.449272 12.2709167 241.289045 13.5027083L244.319528 10.6768333C243.151149 9.08275 240.960438 7.52489583 237.345765 7.52489583 231.905499 7.52489583 227.998732 11.3289583 227.998732 16.690875 227.998732 22.0890208 231.905499 25.8930833 237.345765 25.8930833zM262.378091 25.4583333L262.378091 14.1548333C262.378091 9.11897917 258.690394 7.52489583 254.674091 7.52489583 251.89919 7.52489583 249.12429 8.39439583 246.970091 10.2783125L248.72266 13.3577917C250.219645 11.9810833 251.972214 11.2927292 253.87083 11.2927292 256.207589 11.2927292 257.741086 12.4520625 257.741086 14.2272917L257.741086 16.5821875C256.572707 15.2054792 254.491532 14.4446667 252.154773 14.4446667 249.343361 14.4446667 246.020783 16.0025208 246.020783 20.0964167 246.020783 24.0091667 249.343361 25.8930833 252.154773 25.8930833 254.45502 25.8930833 256.536195 25.0598125 257.741086 23.646875L257.741086 25.4583333 262.378091 25.4583333zM254.016878 22.777375C252.191285 22.777375 250.694299 21.8354167 250.694299 20.2051042 250.694299 18.5023333 252.191285 17.560375 254.016878 17.560375 255.513863 17.560375 256.974337 18.0675833 257.741086 19.082L257.741086 21.25575C256.974337 22.2701667 255.513863 22.777375 254.016878 22.777375zM271.418227 25.4583333L271.418227 13.9012292C272.184976 12.778125 274.22964 11.908625 275.763137 11.908625 276.274303 11.908625 276.712445 11.9448542 277.041052 12.0173125L277.041052 7.52489583C274.850341 7.52489583 272.65963 8.79291667 271.418227 10.3507708L271.418227 7.95964583 266.781222 7.95964583 266.781222 25.4583333 271.418227 25.4583333zM296.523577 25.4583333L296.523577 1.29347917 291.85006 1.29347917 291.85006 10.2058542C290.46261 8.430625 288.49097 7.52489583 286.409795 7.52489583 281.918838 7.52489583 278.596259 11.0028958 278.596259 16.7271042 278.596259 22.56 281.955349 25.8930833 286.409795 25.8930833 288.527482 25.8930833 290.46261 24.951125 291.85006 23.212125L291.85006 25.4583333 296.523577 25.4583333zM287.833757 21.7991875C285.204904 21.7991875 283.379311 19.734125 283.379311 16.7271042 283.379311 13.6838542 285.204904 11.6187917 287.833757 11.6187917 289.403766 11.6187917 291.083312 12.4520625 291.85006 13.6113958L291.85006 19.8065833C291.083312 20.9659167 289.403766 21.7991875 287.833757 21.7991875z"/>
    </g>
  </g>
</svg>
