<svg xmlns="http://www.w3.org/2000/svg" width="365" height="55" viewBox="0 0 365 55" xmlns:xlink="http://www.w3.org/1999/xlink">
  <defs>
    <rect id="a" width="4.135" height="1.53" x=".155" y=".693"/>
  </defs>
  <g fill="none" fill-rule="evenodd">
    <path fill="#000000" fill-rule="nonzero" d="M54.2012146,27.0810389 C54.3745087,39.3344436 46.4246451,46.5609277 34.4456953,52.2987999 C31.9329319,53.4968172 29.6584477,54.2954954 27.1023608,54.9260308 C24.5246121,54.3165132 22.250128,53.5178351 19.7373645,52.3198178 C7.75841477,46.5609277 -0.191448824,39.3554615 0.00350695869,27.0810389 L0.0251687124,0.0210178469 L7.46172567,0.807217427 L7.46172567,5.49406317 L15.7020872,6.38213906 L15.7020872,1.69635562 L23.1554938,2.49133642 L23.1554938,7.17084527 L27.2904034,7.59638122 L31.3987605,7.17084527 L31.3987605,2.49133642 L38.8707336,1.69635562 L38.8707336,6.38213906 L47.1164456,5.49406317 L47.1164456,0.807217427 L54.2012146,0.0210178469 L54.2012146,27.0810389 Z M29.7036299,17.8925845 L26.3368098,17.8925845 C25.5659515,21.0429364 24.8064408,23.9439364 24.0582548,26.5956715 C23.2420519,29.4287218 22.4485332,32.3183897 21.6776749,35.264762 C20.9294889,32.8849998 20.1699782,30.2899646 19.3991199,27.4795787 C19.0363631,26.2103722 18.6849477,24.8901906 18.3448631,23.5189942 C18.0047786,22.1477979 17.6873711,20.8616124 17.3926312,19.660399 L19.1950702,19.2184454 L19.1950702,17.8925845 L14.6719685,17.9945738 L10.1488668,17.8925845 L10.1488668,19.2524418 L11.9853141,19.660399 C12.6201386,21.3828936 13.0622418,22.606753 13.3116371,23.3320139 C13.8331001,24.8731932 14.501923,26.8676307 15.3181259,29.3153862 C16.2930349,32.2390941 17.3359452,35.480055 18.446888,39.0383662 L20.6574264,38.9363769 L22.8679648,39.0383662 L27.2550334,24.283914 L31.7781352,39.0383662 L34.0226819,38.9363769 L36.2332203,39.0383662 L39.2259493,29.3493826 C39.3393108,28.9867522 39.7587421,27.7742248 40.4842558,25.7117642 C41.3458033,23.2413443 42.0713061,21.2242428 42.6607859,19.660399 L44.0551256,19.2184454 L44.0551256,17.8925845 L40.5182641,17.9945738 L37.0494191,17.8925845 L37.0494191,19.2524418 L38.953883,19.660399 L34.872889,35.3667513 L29.7036299,17.8925845 Z"/>
    <g transform="translate(23 5)"/>
    <path fill="#161616" fill-rule="nonzero" d="M98.2090778,13.2017366 L96.0445433,12.7598198 L96.0445433,11.2499376 L100.634849,11.3604168 L105.001238,11.2499376 L105.001238,12.7598198 L102.538147,13.2017366 C100.896078,17.571824 99.3535515,22.1014253 97.9105213,26.7906764 L93.9919674,40.4164426 L89.103105,40.4164426 L83.3932123,18.0259943 C82.8956157,20.1373849 82.5721827,21.5244985 82.4229038,22.187377 C81.8755475,24.4951759 81.2784405,26.8397663 80.6315649,29.2212184 C80.1837279,30.9397921 79.7234579,32.8056442 79.2507411,34.8188305 C78.8775437,36.4392 78.4421531,38.305052 77.9445565,40.4164426 L73.0183746,40.4164426 C71.774383,35.6535383 70.4930909,31.1116617 69.1744599,26.7906764 C68.6022237,24.8756942 67.9304784,22.6538573 67.1592036,20.1250988 C66.3879288,17.5963404 65.6539848,15.288576 64.9573495,13.2017366 L62.2703412,12.7598198 L62.2703412,11.2499376 L67.9802339,11.3604168 L73.4662093,11.2499376 L73.4662093,12.7598198 L71.115077,13.2017366 C71.5877938,15.2394739 72.0107446,17.0193986 72.383942,18.5415639 C72.533221,19.1307891 72.993491,20.9229891 73.7647658,23.9182175 C74.7101994,27.6499776 75.692938,31.2343775 76.713011,34.6715249 C77.7579639,30.7679075 78.7407025,26.8520733 79.6612563,22.9239049 C80.1339731,21.0580249 80.5942431,19.1185208 81.04208,17.1053344 C81.4152775,15.4604139 81.850668,13.4963591 82.3482646,11.2131112 L84.7367165,11.3604168 L86.9758901,11.2499376 C87.3739674,13.1894708 87.7906983,15.1166995 88.2260954,17.0316817 C88.6614924,18.9466638 89.1528617,20.9107185 89.700218,22.9239049 C90.2475743,24.9370912 90.7824826,26.9256967 91.3049591,28.8897809 C91.7527961,30.5592525 92.2503852,32.5233072 92.7977415,34.7820041 C93.5441365,31.7867757 94.116364,29.5649387 94.5144413,28.1164266 C95.0369177,26.2996487 95.4225493,24.9370857 95.6713477,24.0286967 C96.1440644,22.3592251 96.6043344,20.5547498 97.0521714,18.6152166 C97.4253689,16.9702961 97.8110005,15.1658208 98.2090778,13.2017366 Z M111.084326,31.6149341 C111.084326,32.6215273 111.096766,33.4623882 111.121646,34.1375422 C111.146525,34.8126961 111.221164,35.6228687 111.345563,36.5680843 C111.469962,37.5132998 111.55704,38.0350018 111.6068,38.1332061 L114.405767,38.6119492 L114.405767,40.085005 L108.546596,39.9745258 L103.172579,40.085005 L103.172579,38.6119492 L105.523712,38.1332061 L105.747629,36.1077543 C105.797389,35.493978 105.847148,34.7881458 105.896907,33.9902366 C105.946667,33.1923274 105.971546,32.4005678 105.971546,31.6149341 L105.971546,25.8331901 C105.971546,25.317618 105.959107,24.7836406 105.934227,24.2312419 C105.909347,23.6788432 105.859588,23.1448658 105.784948,22.6292937 L105.561031,20.0514461 L102.799384,19.4990501 L102.799384,18.0259943 C103.3965,18.0259943 103.943848,17.9891683 104.441444,17.9155151 C105.162959,17.7682088 105.697868,17.6700061 106.046185,17.620904 C106.767701,17.4981487 107.327488,17.3938083 107.725566,17.3078796 C108.123643,17.2219509 108.658551,17.0807845 109.330307,16.8843761 L110.636491,16.8843761 L110.487213,23.2921688 C111.183848,21.2298804 112.266105,19.6586366 113.734015,18.5783902 C114.43065,18.0873692 115.133495,17.7068336 115.84257,17.436772 C116.551645,17.1667104 117.279369,17.0316817 118.025764,17.0316817 C118.324322,17.0316817 118.616656,17.0562323 118.902774,17.1053344 C119.188892,17.1544365 119.493665,17.2219509 119.817103,17.3078796 C120.140541,17.3938083 120.401775,17.5226994 120.600814,17.6945568 L119.294629,20.9352795 L118.585558,23.3658216 C117.590364,23.1448621 117.080336,22.923906 117.055456,22.7029465 C117.055456,22.4083339 117.080335,22.1873777 117.130095,22.0400714 C117.130095,21.4508461 117.036797,21.1194119 116.850198,21.0457587 C116.663599,20.9721056 116.408585,20.9352795 116.085147,20.9352795 C114.741636,20.9352795 113.572302,21.7086261 112.577108,23.2553424 C111.581915,24.8020588 111.084326,26.7047368 111.084326,28.9634337 L111.084326,31.6149341 Z M124.478821,10.5502361 C124.478821,9.74005137 124.777375,9.04035686 125.374491,8.45113159 C125.971607,7.86190632 126.680671,7.56729811 127.501706,7.56729811 C128.32274,7.56729811 129.031805,7.86190632 129.628921,8.45113159 C130.226037,9.04035686 130.52459,9.74005137 130.52459,10.5502361 C130.52459,11.3849719 130.226037,12.0969418 129.628921,12.686167 C129.031805,13.2753923 128.32274,13.5700005 127.501706,13.5700005 C126.680671,13.5700005 125.971607,13.2753923 125.374491,12.686167 C124.777375,12.0969418 124.478821,11.3849719 124.478821,10.5502361 Z M130.076755,31.6149341 C130.076755,32.474221 130.089195,33.2782559 130.114075,34.027063 C130.138955,34.7758701 130.201153,35.6167311 130.300673,36.5496711 C130.400192,37.4826111 130.47483,38.0104508 130.52459,38.1332061 L132.875722,38.6119492 L132.875722,40.085005 L127.501706,39.9745258 L122.127689,40.085005 L122.127689,38.6119492 L124.478821,38.1332061 L124.702739,36.1077543 C124.752498,35.493978 124.802257,34.7881458 124.852017,33.9902366 C124.901777,33.1923274 124.926656,32.4005678 124.926656,31.6149341 L124.926656,25.2807942 C124.926656,24.1759968 124.876897,23.2430708 124.777378,22.4819881 C124.777378,21.941865 124.752498,21.4631266 124.702739,21.0457587 C124.652979,20.6283908 124.59078,20.3092319 124.516141,20.0882724 L121.754493,19.5727029 L121.754493,18.0628207 L123.601812,17.8602755 C124.161608,17.7988979 124.677857,17.7191082 125.150573,17.620904 L128.583973,16.8843761 L130.487271,16.8843761 L130.151394,20.1250988 L130.076755,22.8134257 L130.076755,31.6149341 Z M141.350489,31.9095453 C141.350489,33.7263232 141.549525,35.0275095 141.947602,35.8131432 C142.29592,36.5987769 142.980105,36.9915878 144.000178,36.9915878 C144.497775,36.9915878 145.045123,36.856559 145.642239,36.5864975 C146.139835,36.3164359 146.600105,35.9850016 147.023063,35.5921848 L148.403886,37.102067 C148.105328,37.6667412 147.383824,38.3909864 146.239352,39.2748243 C145.09488,40.1586622 143.664311,40.6005745 141.947602,40.6005745 C140.206014,40.6005745 138.800325,40.0972855 137.730492,39.0906923 C136.735299,38.0595481 136.23771,36.6847098 136.23771,34.9661361 L136.23771,20.0882724 L133.252145,20.0882724 L133.252145,18.5783902 L136.23771,17.6577304 L136.051112,12.7966462 L141.537087,11.6918544 L141.350489,17.6577304 L147.433578,17.436772 L146.239352,20.235578 L141.350489,20.0882724 L141.350489,31.9095453 Z M156.722921,31.9095453 C156.722921,33.7263232 156.921957,35.0275095 157.320034,35.8131432 C157.668352,36.5987769 158.352537,36.9915878 159.37261,36.9915878 C159.870207,36.9915878 160.417555,36.856559 161.014671,36.5864975 C161.512267,36.3164359 161.972537,35.9850016 162.395495,35.5921848 L163.776318,37.102067 C163.47776,37.6667412 162.756256,38.3909864 161.611784,39.2748243 C160.467312,40.1586622 159.036743,40.6005745 157.320034,40.6005745 C155.578446,40.6005745 154.172757,40.0972855 153.102924,39.0906923 C152.107731,38.0595481 151.610142,36.6847098 151.610142,34.9661361 L151.610142,20.0882724 L148.624577,20.0882724 L148.624577,18.5783902 L151.610142,17.6577304 L151.423544,12.7966462 L156.909519,11.6918544 L156.722921,17.6577304 L162.80601,17.436772 L161.611784,20.235578 L156.722921,20.0882724 L156.722921,31.9095453 Z M186.127508,34.6715249 C185.605032,35.4080565 184.995485,36.107751 184.29885,36.7706294 C183.602214,37.4335079 182.756313,38.084101 181.761119,38.7224284 C179.795613,39.9745321 177.705738,40.6005745 175.491433,40.6005745 C171.908738,40.6005745 169.097359,39.5817211 167.057213,37.5439837 C165.017067,35.5062463 163.997009,32.6829176 163.997009,29.0739129 C163.997009,25.7595207 165.203662,22.9239167 167.617006,20.5670156 C170.03035,18.2101145 172.941246,17.0316817 176.349783,17.0316817 C179.161204,17.0316817 181.431455,17.8602673 183.160603,19.5174633 C184.889751,21.1746594 185.754312,23.2921559 185.754312,25.8700165 L185.754312,27.1589403 L169.744221,27.1589403 C169.744221,30.3260261 170.322668,32.7442686 171.479581,34.4137401 C172.636493,36.0832117 174.458913,36.917935 176.946896,36.917935 C178.663605,36.917935 180.187471,36.4637474 181.518542,35.5553584 C182.849613,34.6469694 183.838572,33.8367969 184.485447,33.1248163 L186.127508,34.6715249 Z M169.893499,24.986183 L180.231017,24.5074399 L180.231017,24.0286967 C180.231017,22.5556336 179.882705,21.4263021 179.18607,20.6406684 C178.489435,19.8550347 177.432058,19.4622237 176.013907,19.4622237 C174.14792,19.4622237 172.617833,20.1496429 171.423601,21.5245019 C170.726966,22.4083398 170.216937,23.5622219 169.893499,24.986183 Z M208.895667,31.6149341 C208.895667,32.474221 208.908106,33.2782559 208.932986,34.027063 C208.957866,34.7758701 209.020065,35.6167311 209.119584,36.5496711 C209.219103,37.4826111 209.293742,38.0104508 209.343501,38.1332061 L211.694634,38.6119492 L211.694634,40.085005 L206.357937,39.9745258 L203.820206,40.085005 L203.820206,38.6119492 L203.782887,38.1332061 L203.782887,26.9748083 C203.782887,24.8388667 203.459454,23.2553476 202.812578,22.2242034 C202.240342,21.1930591 201.170526,20.6774948 199.603096,20.6774948 C198.035667,20.6774948 196.766814,21.3403633 195.796501,22.6661201 C194.925707,23.9673259 194.490316,25.7104245 194.490316,27.8954682 L194.490316,31.6149341 C194.490316,32.6215273 194.502756,33.4623882 194.527636,34.1375422 C194.552516,34.8126961 194.614714,35.4694269 194.714234,36.1077543 L194.938151,38.1332061 L197.289283,38.6119492 L197.289283,40.085005 L191.952586,39.9745258 L186.57857,40.085005 L186.57857,38.6119492 L188.929702,38.1332061 L189.153619,36.1077543 C189.203379,35.493978 189.253138,34.7881458 189.302898,33.9902366 C189.352657,33.1923274 189.377537,32.4005678 189.377537,31.6149341 L189.377537,25.8331901 C189.377537,25.317618 189.365097,24.7836406 189.340217,24.2312419 C189.315337,23.6788432 189.265578,23.1448658 189.190939,22.6292937 L188.967021,20.0514461 L186.205374,19.4990501 L186.205374,18.0259943 C186.85225,18.0259943 187.436917,17.9891683 187.959393,17.9155151 C188.730668,17.7682088 189.302896,17.6700061 189.676093,17.620904 C190.721046,17.4490466 191.367912,17.3385685 191.61671,17.2894664 C191.865509,17.2403643 192.375537,17.1053355 193.146812,16.8843761 L194.676914,16.8843761 L194.490316,20.9352795 C195.609909,19.6095227 196.816563,18.6274953 198.110314,17.9891679 C199.404065,17.3508406 200.784875,17.0316817 202.252785,17.0316817 C204.268051,17.0316817 205.878996,17.6577241 207.085668,18.9098278 C208.29234,20.1619315 208.895667,21.8191027 208.895667,23.8813911 L208.895667,31.6149341 Z M222.778543,26.7906764 L222.778543,32.4251148 L223.114419,38.1332061 L225.838747,38.6119492 L225.838747,40.085005 L220.054215,39.9745258 L214.269683,40.085005 L214.269683,38.6119492 L216.956692,38.1332061 L217.292568,32.4251148 L217.292568,18.9098278 L216.956692,13.2017366 L214.269683,12.7598198 L214.269683,11.2499376 L220.054215,11.3604168 L230.466373,11.1394584 C233.377313,11.1394584 235.660003,11.7470879 237.314512,12.962365 C238.969021,14.1776421 239.796263,15.914603 239.796263,18.1732999 C239.796263,19.9164247 239.217815,21.4876685 238.060903,22.8870785 C236.903991,24.2864885 234.683499,25.3544433 231.399362,26.0909749 L241.923478,38.1332061 L243.602858,38.6119492 L243.640177,40.085005 L241.848838,40.085005 C241.276602,40.085005 240.629736,40.121831 239.908221,40.1954842 C239.385745,40.1954842 238.807297,40.2384479 238.172862,40.3243766 C237.538426,40.4103052 236.8729,40.526921 236.176265,40.6742273 C233.240445,36.5742015 231.212769,33.8122495 230.093177,32.3882884 L225.764108,26.7906764 L222.778543,26.7906764 Z M222.815863,23.8445647 L226.025345,24.1391759 C228.26453,24.1391759 230.118049,23.6051985 231.585959,22.5372277 C233.053869,21.4692569 233.787813,20.1373823 233.787813,18.5415639 C233.787813,17.0685007 233.184487,15.9084808 231.977815,15.0614695 C230.771143,14.2144582 229.135319,13.7909589 227.070293,13.7909589 C226.721975,13.7909589 226.361223,13.8032342 225.988025,13.8277853 C225.614828,13.8523363 225.229196,13.9014377 224.831119,13.9750909 C224.010084,14.048744 223.338339,14.1837728 222.815863,14.3801812 L222.815863,23.8445647 Z M264.423945,34.6715249 C263.901469,35.4080565 263.291922,36.107751 262.595287,36.7706294 C261.898652,37.4335079 261.05275,38.084101 260.057557,38.7224284 C258.09205,39.9745321 256.002176,40.6005745 253.787871,40.6005745 C250.205175,40.6005745 247.393796,39.5817211 245.35365,37.5439837 C243.313504,35.5062463 242.293446,32.6829176 242.293446,29.0739129 C242.293446,25.7595207 243.5001,22.9239167 245.913444,20.5670156 C248.326787,18.2101145 251.237684,17.0316817 254.646221,17.0316817 C257.457642,17.0316817 259.727892,17.8602673 261.45704,19.5174633 C263.186189,21.1746594 264.05075,23.2921559 264.05075,25.8700165 L264.05075,27.1589403 L248.040659,27.1589403 C248.040659,30.3260261 248.619106,32.7442686 249.776018,34.4137401 C250.93293,36.0832117 252.755351,36.917935 255.243334,36.917935 C256.960042,36.917935 258.483909,36.4637474 259.81498,35.5553584 C261.146051,34.6469694 262.135009,33.8367969 262.781885,33.1248163 L264.423945,34.6715249 Z M248.189937,24.986183 L258.527455,24.5074399 L258.527455,24.0286967 C258.527455,22.5556336 258.179143,21.4263021 257.482507,20.6406684 C256.785872,19.8550347 255.728495,19.4622237 254.310345,19.4622237 C252.444357,19.4622237 250.914271,20.1496429 249.720039,21.5245019 C249.023403,22.4083398 248.513375,23.5622219 248.189937,24.986183 Z M283.086952,28.337385 L281.556851,28.337385 C280.21334,28.337385 278.988026,28.4908267 277.880874,28.7977149 C276.773721,29.1046031 275.822082,29.5403777 275.025927,30.1050519 C273.458498,31.062543 272.674795,32.3391786 272.674795,33.934997 C272.674795,34.6715286 273.035547,35.3528101 273.757062,35.9788619 C274.478578,36.6049138 275.436437,36.917935 276.630669,36.917935 C278.621055,36.917935 280.194681,36.0893494 281.351593,34.4321533 C282.508505,32.7749573 283.086952,30.7433881 283.086952,28.337385 Z M282.785169,35.0397889 C281.342139,37.4948941 279.849371,39.0415873 278.306822,39.6799146 C276.764272,40.318242 275.196867,40.6374009 273.604557,40.6374009 C271.464892,40.6374009 269.72955,40.0420468 268.398479,38.8513208 C267.067408,37.6605947 266.401882,36.2305173 266.401882,34.5610457 C266.401882,31.8604299 267.801352,29.7429334 270.600333,28.2084926 C273.399314,26.6740518 277.286729,25.9068429 282.262695,25.9068429 L282.262695,23.6236064 C282.262695,22.1750943 281.895723,21.2053422 281.161768,20.7143212 C280.427813,20.2233001 279.227379,19.9777933 277.560431,19.9777933 C275.868602,19.9777933 274.475353,20.1741987 273.38064,20.5670156 C272.758644,20.7879751 272.248615,20.9843805 271.850538,21.1562379 C271.775898,21.180789 271.68882,21.217615 271.589301,21.2667171 L271.589301,23.402648 L270.096519,23.8813911 L267.894665,18.9834806 L270.954869,18.0259943 C272.970135,17.3631159 275.520279,17.0316817 278.605378,17.0316817 C283.382306,17.0316817 286.112827,18.4310707 286.797022,21.2298907 C287.481217,24.0287107 287.82331,29.1843545 287.82331,36.6969766 L287.82331,37.3966782 L290.099803,38.5382964 L290.099803,40.085005 L286.96496,40.0481786 L285.658775,40.0113522 L283.195684,40.1218314 C283.145925,39.9990761 283.096166,39.833359 283.046406,39.6246751 C282.996646,39.4159911 282.971767,39.0906945 282.971767,38.6487756 C282.971767,38.1577545 282.959327,37.6115018 282.934447,37.010001 C282.909568,36.4085002 282.859809,35.7517694 282.785169,35.0397889 Z M291.667224,10.3292777 L291.667224,8.81939554 L298.459384,7.71460369 L300.400002,7.71460369 L300.064126,10.9553265 L299.989486,13.6436533 L299.989486,31.6149341 C299.989486,32.474221 300.001926,33.2782559 300.026806,34.027063 C300.051686,34.7758701 300.113884,35.6167311 300.213404,36.5496711 C300.312923,37.4826111 300.387561,38.0104508 300.437321,38.1332061 L302.788453,38.6119492 L302.788453,40.085005 L297.414437,39.9745258 L292.04042,40.085005 L292.04042,38.6119492 L294.354233,38.1332061 C294.403992,38.0841039 294.459971,37.8754231 294.522171,37.5071573 C294.58437,37.1388915 294.61547,36.6724285 294.61547,36.1077543 C294.665229,35.493978 294.714988,34.7881458 294.764748,33.9902366 C294.814508,33.1923274 294.839387,32.4005678 294.839387,31.6149341 L294.839387,17.6577304 C294.839387,17.0685051 294.820728,16.4056366 294.783408,15.669105 C294.746088,14.9325734 294.714989,14.1224009 294.690109,13.238563 C294.690109,12.6984398 294.665229,12.2197014 294.61547,11.8023335 C294.56571,11.3849656 294.503511,11.0658067 294.428872,10.8448473 L291.667224,10.3292777 Z M340.966364,31.6149341 C340.966364,32.6215273 340.978803,33.4623882 341.003683,34.1375422 C341.028563,34.8126961 341.090762,35.4694269 341.190281,36.1077543 L341.414198,38.1332061 L343.765331,38.6119492 L343.765331,40.085005 L338.428634,39.9745258 L335.853584,40.085005 L335.853584,26.9748083 C335.853584,24.8879688 335.56747,23.3044497 334.995234,22.2242034 C334.373238,21.1930591 333.328301,20.6774948 331.860391,20.6774948 C330.392481,20.6774948 329.185827,21.3403633 328.240394,22.6661201 C327.394479,23.991877 326.971528,25.7349756 326.971528,27.8954682 L326.971528,31.6149341 C326.971528,32.6215273 326.983968,33.4623882 327.008848,34.1375422 C327.033728,34.8126961 327.095927,35.4694269 327.195446,36.1077543 L327.419363,38.1332061 L329.770496,38.6119492 L329.770496,40.085005 L324.433798,39.9745258 L319.097101,40.085005 L319.097101,38.6119492 L321.448234,38.1332061 L321.634831,36.1077543 C321.78411,34.8802017 321.858749,33.3826099 321.858749,31.6149341 L321.858749,26.9748083 C321.858749,24.8879688 321.572635,23.3044497 321.000399,22.2242034 C320.378403,21.1930591 319.333466,20.6774948 317.865556,20.6774948 C316.323006,20.6774948 315.122572,21.3403633 314.264218,22.6661201 C313.405864,23.991877 312.976693,25.7349756 312.976693,27.8954682 L312.976693,31.6149341 C312.976693,32.474221 312.989133,33.2782559 313.014013,34.027063 C313.038893,34.7758701 313.101091,35.6167311 313.200611,36.5496711 C313.30013,37.4826111 313.374768,38.0104508 313.424528,38.1332061 L315.77566,38.6119492 L315.77566,40.085005 L310.438963,39.9745258 L305.064947,40.085005 L305.064947,38.6119492 L307.416079,38.1332061 L307.639996,36.1077543 C307.689756,35.493978 307.739515,34.7881458 307.789275,33.9902366 C307.839034,33.1923274 307.863914,32.4005678 307.863914,31.6149341 L307.863914,25.8331901 C307.863914,25.317618 307.851474,24.7836406 307.826594,24.2312419 C307.801714,23.6788432 307.751955,23.1448658 307.677316,22.6292937 L307.453398,20.0514461 L304.691751,19.4990501 L304.691751,18.0259943 C305.313747,18.0259943 305.885974,17.9891683 306.408451,17.9155151 C307.179726,17.7682088 307.751953,17.6700061 308.125151,17.620904 C308.946185,17.4981487 309.555732,17.3938083 309.953809,17.3078796 C310.351886,17.2219509 310.911674,17.0807845 311.633189,16.8843761 L313.163291,16.8843761 L312.976693,20.9352795 C314.096286,19.6095227 315.26562,18.6274953 316.484732,17.9891679 C317.703844,17.3508406 319.034895,17.0316817 320.477925,17.0316817 C322.045354,17.0316817 323.345306,17.4183549 324.377819,18.1917131 C325.410332,18.9650713 326.138056,19.977787 326.561013,21.2298907 C326.909331,20.7143186 327.307402,20.2355802 327.755239,19.7936613 C328.203076,19.3517423 328.775304,18.8852793 329.471939,18.3942583 C330.715931,17.4858693 332.395294,17.0316817 334.51008,17.0316817 C336.450707,17.0316817 338.011893,17.6577241 339.193684,18.9098278 C340.375476,20.1619315 340.966364,21.8191027 340.966364,23.8813911 L340.966364,31.6149341 Z M365,33.0511635 C365,35.0643499 363.948843,36.8319991 361.846497,38.3541644 C359.744151,39.8763297 357.212667,40.6374009 354.251967,40.6374009 C352.31134,40.6374009 350.538678,40.4103071 348.933929,39.9561126 C347.32918,39.5019181 345.792874,38.832912 344.324964,37.9490741 C344.598642,37.6299104 344.915855,37.2432371 345.276612,36.7890426 C345.63737,36.3348482 345.954583,35.9236242 346.228261,35.5553584 C346.501939,35.1870926 346.788053,34.769731 347.086611,34.303261 C347.28565,33.9840973 347.522005,33.5667356 347.795683,33.0511635 L349.176506,33.750865 L348.654033,35.8499696 C349.10187,36.2427864 349.873133,36.660148 350.967845,37.102067 C352.012798,37.4703328 353.343849,37.6544629 354.961038,37.6544629 C356.354309,37.6544629 357.523643,37.3659924 358.469077,36.7890426 C359.414511,36.2120929 359.88722,35.3835073 359.88722,34.303261 C359.88722,33.2475657 359.314993,32.4619438 358.17052,31.9463717 C357.623164,31.7008611 356.951419,31.4369413 356.155264,31.1546042 C355.35911,30.8722671 354.488329,30.5837965 353.542895,30.2891839 C351.552508,29.7981628 349.779847,29.0800553 348.224858,28.1348398 C346.669868,27.1896242 345.892385,25.7227208 345.892385,23.7340856 C345.892385,21.8436545 346.900003,20.2539977 348.91527,18.9650674 C350.930536,17.6761371 353.269205,17.0316817 355.931347,17.0316817 C357.449017,17.0316817 358.966664,17.1667104 360.484333,17.436772 C361.131209,17.5595273 361.734536,17.6884184 362.294332,17.8234491 C362.854128,17.9584799 363.382817,18.1119217 363.880413,18.2837791 L362.051755,23.2553424 L360.521653,22.9975577 L360.521653,21.2298907 C359.899657,20.886176 359.053755,20.548604 357.983923,20.2171648 C356.91409,19.8857256 355.918912,19.7200085 354.998358,19.7200085 C353.605087,19.7200085 352.54771,20.0023414 351.826195,20.5670156 C351.10468,21.0825877 350.743928,21.7945575 350.743928,22.7029465 C350.743928,23.390376 351.166879,24.0286938 352.012793,24.617919 C352.858707,25.1580422 354.339035,25.6736066 356.453821,26.1646276 C359.638439,26.8520571 361.858931,27.7420194 363.115362,28.8345413 C364.371794,29.9270631 365,31.3325898 365,33.0511635 Z"/>
  </g>
</svg>
