<svg xmlns="http://www.w3.org/2000/svg" width="177" height="76" viewBox="0 0 177 76">
  <g fill="#FFFFFF" fill-rule="evenodd" transform="translate(-5 -13)">
    <path d="M40.6806398,44.4295583 C41.5802288,42.5689843 42.5969432,40.7377018 43.7307985,38.9356818 C45.2988063,36.4436694 47.0487888,34.2176916 48.9807985,32.2576818 C50.9128081,30.297672 52.9567877,28.7296877 55.1127985,27.5536818 C57.2688093,26.377676 59.4667873,25.7896818 61.7067985,25.7896818 C64.00281,25.7896818 65.5567944,26.6576732 66.3687985,28.3936818 C67.1808025,30.1296905 67.4188002,32.3556683 67.0827985,35.0716818 C66.7467968,37.7876954 65.9348049,40.7696656 64.6467985,44.0176818 C63.358792,47.2656981 61.762808,50.4016667 59.8587985,53.4256818 C60.754803,53.3696816 61.7627929,52.8516867 62.8827985,51.8716818 C64.0028041,50.8916769 65.108793,49.7436884 66.2007985,48.4276818 C67.2928039,47.1116753 68.3147937,45.7956884 69.2667985,44.4796818 C69.3008323,44.4326351 69.3346513,44.3859284 69.3682557,44.3395617 C70.2570534,42.5099237 71.2592295,40.7086396 72.3747985,38.9356818 C73.9428063,36.4436694 75.6927888,34.2176916 77.6247985,32.2576818 C79.5568081,30.297672 81.6007877,28.7296877 83.7567985,27.5536818 C85.9128093,26.377676 88.1107873,25.7896818 90.3507985,25.7896818 C92.64681,25.7896818 94.2007944,26.6576732 95.0127985,28.3936818 C95.8248025,30.1296905 96.0628002,32.3556683 95.7267985,35.0716818 C95.3907968,37.7876954 94.5788049,40.7696656 93.2907985,44.0176818 C92.002792,47.2656981 90.406808,50.4016667 88.5027985,53.4256818 C89.398803,53.3696816 90.4067929,52.8516867 91.5267985,51.8716818 C92.6468041,50.8916769 93.752793,49.7436884 94.8447985,48.4276818 C95.9368039,47.1116753 96.9587937,45.7956884 97.9107985,44.4796818 C98.030271,44.3145286 98.1470975,44.153565 98.261278,43.9967908 C99.5919554,40.9632448 100.847119,38.1562304 102.026798,35.5756818 C103.370805,32.6356671 104.490794,30.2696908 105.386798,28.4776818 C105.946801,27.4136765 106.660794,26.6856838 107.528798,26.2936818 C108.396803,25.9016799 109.236794,25.7196817 110.048798,25.7476818 C110.860803,25.775682 111.532796,25.97168 112.064798,26.3356818 C112.596801,26.6996837 112.778799,27.0776799 112.610798,27.4696818 L111.182798,30.9136818 L112.190798,29.9056818 C113.590805,28.6176754 115.032791,27.6236853 116.516798,26.9236818 C118.000806,26.2236783 119.470791,25.8176824 120.926798,25.7056818 C122.438806,25.6496816 123.488796,26.1956761 124.076798,27.3436818 C124.664801,28.4916876 124.902799,30.0316722 124.790798,31.9636818 C124.678798,33.8956915 124.258802,36.1216692 123.530798,38.6416818 C122.802795,41.1616944 121.864804,43.7236688 120.716798,46.3276818 C119.568793,48.9316949 118.266806,51.4936692 116.810798,54.0136818 C115.354791,56.5336944 113.842806,58.773672 112.274798,60.7336818 C110.706791,62.6936916 109.110807,64.2756758 107.486798,65.4796818 C105.86279,66.6836879 104.322806,67.2576821 102.866798,67.2016818 C101.578792,67.1456816 100.598802,66.5576874 99.9267985,65.4376818 C99.2547951,64.3176762 98.8347993,63.0296891 98.6667985,61.5736818 L91.7787985,78.3736818 C90.9947946,80.4456922 90.2808017,82.0976757 89.6367985,83.3296818 C88.9927953,84.561688 88.3628016,85.4856788 87.7467985,86.1016818 C87.1307954,86.7176849 86.5148016,87.1236809 85.8987985,87.3196818 C85.2827954,87.5156828 84.6108021,87.6136818 83.8827985,87.6136818 C82.9307937,87.5576816 82.2868002,87.0956862 81.9507985,86.2276818 C81.6147968,85.3596775 81.7547954,84.11369 82.3707985,82.4896818 C82.874801,81.0336746 83.672793,78.9336956 84.7647985,76.1896818 C85.8568039,73.4456681 87.1027915,70.3656989 88.5027985,66.9496818 C89.9028055,63.5336648 91.4007905,59.9497006 92.9967985,56.1976818 C93.3764092,55.3052638 93.7544344,54.419185 94.130875,53.539444 C94.0327099,53.6429199 93.9346845,53.7449991 93.8367985,53.8456818 C92.8567936,54.8536869 91.9748024,55.6096793 91.1907985,56.1136818 C89.0067876,57.6816897 86.962808,58.4096824 85.0587985,58.2976818 C82.9307878,60.9856953 80.6628105,63.1836733 78.2547985,64.8916818 C75.8467864,66.5996904 73.4668102,67.4536818 71.1147985,67.4536818 C69.210789,67.4536818 67.7968031,66.8516879 66.8727985,65.6476818 C65.9487939,64.4436758 65.4027993,62.8616916 65.2347985,60.9016818 C65.0667976,58.941672 65.2627957,56.7156943 65.8227985,54.2236818 C65.9292448,53.7499956 66.0458075,53.2742874 66.1724866,52.7965566 C65.8443849,53.1616634 65.5178225,53.5113714 65.1927985,53.8456818 C64.2127936,54.8536869 63.3308024,55.6096793 62.5467985,56.1136818 C60.3627876,57.6816897 58.318808,58.4096824 56.4147985,58.2976818 C54.2867878,60.9856953 52.0188105,63.1836733 49.6107985,64.8916818 C47.2027864,66.5996904 44.8228102,67.4536818 42.4707985,67.4536818 C40.566789,67.4536818 39.1528031,66.8516879 38.2287985,65.6476818 C37.3047939,64.4436758 36.7587993,62.8616916 36.5907985,60.9016818 C36.4227976,58.941672 36.6187957,56.7156943 37.1787985,54.2236818 C37.2604072,53.8605232 37.347962,53.4961761 37.4414629,53.1306403 C37.3099346,53.3017504 37.1803798,53.4700976 37.0527985,53.6356818 C35.7367919,55.3436904 34.4908044,56.8976748 33.3147985,58.2976818 C32.1387926,59.6976888 30.9768042,60.9996758 29.8287985,62.2036818 C28.6807927,63.4076879 27.3788058,64.6256757 25.9227985,65.8576818 C25.0827943,66.5296852 24.214803,66.9356811 23.3187985,67.0756818 C22.422794,67.2156825 21.6388018,67.0896838 20.9667985,66.6976818 C20.2947951,66.3056799 19.7908002,65.7036859 19.4547985,64.8916818 C19.1187968,64.0796778 19.0907971,63.0856877 19.3707985,61.9096818 C20.1548024,58.941667 21.1767922,55.9036974 22.4367985,52.7956818 C23.6968048,49.6876663 25.1947898,46.2017012 26.9307985,42.3376818 C27.434801,41.2176762 27.5467999,40.5176832 27.2667985,40.2376818 C26.9867971,39.9576804 26.398803,40.3216768 25.5027985,41.3296818 C24.7187946,42.2256863 23.8228035,43.3036755 22.8147985,44.5636818 C21.8067934,45.8236881 20.7988035,47.139675 19.7907985,48.5116818 C18.7827934,49.8836887 17.8168031,51.2276753 16.8927985,52.5436818 C15.9687939,53.8596884 15.1708018,54.9936771 14.4987985,55.9456818 L13.6587985,57.9616818 C12.8187943,60.0336922 12.0768017,61.6856757 11.4327985,62.9176818 C10.7887953,64.149688 10.1588016,65.0736788 9.54279849,65.6896818 C8.92679541,66.3056849 8.32480143,66.697681 7.73679849,66.8656818 C7.14879555,67.0336827 6.49080213,67.1176818 5.76279849,67.1176818 C4.81079373,67.0616816 4.16680017,66.5996862 3.83079849,65.7316818 C3.49479681,64.8636775 3.60679569,63.6456897 4.16679849,62.0776818 C4.67080101,60.5656743 5.44079331,58.5076949 6.47679849,55.9036818 C7.51280367,53.2996688 8.68879191,50.4156977 10.0047985,47.2516818 C11.3208051,44.087666 12.7067912,40.7416995 14.1627985,37.2136818 C15.6188058,33.6856642 17.0607913,30.2836982 18.4887985,27.0076818 C19.9168056,23.7316655 21.274792,20.6936958 22.5627985,17.8936818 C23.8508049,15.0936678 24.942794,12.7976908 25.8387985,11.0056818 C26.3988013,9.94167652 27.1127941,9.2136838 27.9807985,8.82168184 C28.8488028,8.42967988 29.6887944,8.2476817 30.5007985,8.27568184 C31.3128025,8.30368198 31.9847958,8.49968002 32.5167985,8.86368184 C33.0488011,9.22768366 33.2307993,9.60567988 33.0627985,9.99768184 L18.1947985,46.7056818 C20.9948125,42.7856622 23.3747887,39.509695 25.3347985,36.8776818 C27.2948083,34.2456687 28.9607916,32.11769 30.3327985,30.4936818 C31.7048053,28.8696737 32.8247941,27.7216852 33.6927985,27.0496818 C34.5608028,26.3776785 35.3307951,26.0416818 36.0027985,26.0416818 C37.906808,26.0416818 38.7747993,27.3576687 38.6067985,29.9896818 C38.5507982,31.0536872 38.3128006,32.2856748 37.8927985,33.6856818 C37.4727964,35.0856888 36.8568025,36.7936718 36.0447985,38.8096818 C35.2327944,40.8256919 34.2248045,43.2336678 33.0207985,46.0336818 C31.8167925,48.8336958 30.4028066,52.1656625 28.7787985,56.0296818 C28.1067951,57.8216908 27.7847983,58.9696793 27.8127985,59.4736818 C27.8407986,59.9776844 28.1347957,60.0056841 28.6947985,59.5576818 C29.2548013,59.1096796 30.0527933,58.2836879 31.0887985,57.0796818 C32.1248037,55.8756758 33.2727922,54.4336902 34.5327985,52.7536818 C35.7928048,51.0736734 37.1507912,49.2396918 38.6067985,47.2516818 C39.2980823,46.3078136 39.9893612,45.3671078 40.6806398,44.4295583 Z M150.32966,44.789852 C151.410463,42.2433548 152.543501,39.6759839 153.728798,37.0876818 C155.100805,34.0916669 156.458792,31.277695 157.802798,28.6456818 C158.362801,27.5256762 159.076794,26.7696838 159.944798,26.3776818 C160.812803,25.9856799 161.652794,25.8036817 162.464798,25.8316818 C163.276803,25.859682 163.948796,26.0696799 164.480798,26.4616818 C165.012801,26.8536838 165.194799,27.2456799 165.026798,27.6376818 L158.810798,43.3456818 L165.866798,32.9296818 C166.034799,32.7056807 166.398796,32.2156856 166.958798,31.4596818 C167.518801,30.7036781 168.204794,29.905686 169.016798,29.0656818 C169.828803,28.2256776 170.682794,27.4836851 171.578798,26.8396818 C172.474803,26.1956786 173.342794,25.9016816 174.182798,25.9576818 C175.302804,26.0696824 176.002797,26.4476786 176.282798,27.0916818 C176.5628,27.7356851 176.674799,28.4496779 176.618798,29.2336818 C176.562798,30.1856866 176.212802,31.5016734 175.568798,33.1816818 C174.924795,34.8616902 174.210802,36.6396725 173.426798,38.5156818 C172.642795,40.3916912 171.844803,42.2676725 171.032798,44.1436818 C170.220794,46.0196912 169.6188,47.6016754 169.226798,48.8896818 C168.218793,51.521695 167.896797,53.0896793 168.260798,53.5936818 C168.6248,54.0976844 169.408792,53.8596867 170.612798,52.8796818 C171.816805,51.8996769 173.31479,50.3596923 175.106798,48.2596818 C176.898807,46.1596713 178.718789,43.8496944 180.566798,41.3296818 C180.566798,41.3856821 180.622798,41.59568 180.734798,41.9596818 C180.846799,42.3236837 180.888799,42.785679 180.860798,43.3456818 C180.832798,43.9056846 180.7068,44.5496782 180.482798,45.2776818 C180.258797,46.0056855 179.838802,46.7896776 179.222798,47.6296818 C176.758786,50.8776981 174.322811,53.5516713 171.914798,55.6516818 C169.506786,57.7516923 166.986812,58.8016818 164.354798,58.8016818 C163.066792,58.8016818 162.016803,58.3676862 161.204798,57.4996818 C160.392794,56.6316775 160.126797,55.1896919 160.406798,53.1736818 C160.462799,52.613679 160.686797,51.815687 161.078798,50.7796818 C161.4708,49.7436767 161.918796,48.6236879 162.422798,47.4196818 L163.934798,43.8076818 C164.438801,42.6036758 164.886797,41.5256866 165.278798,40.5736818 C165.894802,39.1736748 166.104799,38.4316823 165.908798,38.3476818 C165.712798,38.2636814 165.348801,38.501679 164.816798,39.0616818 C164.284796,39.6216846 163.696802,40.3356775 163.052798,41.2036818 C162.408795,42.0716862 161.9748,42.7296796 161.750798,43.1776818 C161.302796,43.9616858 160.756802,44.8436769 160.112798,45.8236818 C159.468795,46.8036867 158.810802,47.8116767 158.138798,48.8476818 L156.122798,51.9556818 C155.450795,52.991687 154.834801,53.9576774 154.274798,54.8536818 L153.098798,57.9616818 C152.258794,60.0336922 151.516802,61.6856757 150.872798,62.9176818 C150.228795,64.149688 149.598802,65.0736788 148.982798,65.6896818 C148.366795,66.3056849 147.764801,66.697681 147.176798,66.8656818 C146.588796,67.0336827 145.930802,67.1176818 145.202798,67.1176818 C144.250794,67.0616816 143.6068,66.5996862 143.270798,65.7316818 C142.934797,64.8636775 143.046796,63.6456897 143.606798,62.0776818 C144.390802,59.8376706 145.314793,57.3316957 146.378798,54.5596818 C146.474556,54.3102078 146.570994,54.0600538 146.668112,53.8092197 C145.129723,55.6270705 143.619301,57.291208 142.136798,58.8016818 C140.652791,60.3136894 139.168806,61.6716758 137.684798,62.8756818 C136.200791,64.0796879 134.646807,65.1856768 133.022798,66.1936818 C132.238795,66.6976844 131.188805,67.0896804 129.872798,67.3696818 C128.556792,67.6496832 127.268805,67.6216835 126.008798,67.2856818 C124.748792,66.9496802 123.642803,66.1796879 122.690798,64.9756818 C121.738794,63.7716758 121.206799,61.9376942 121.094798,59.4736818 C120.982798,57.2896709 121.290795,54.881695 122.018798,52.2496818 C122.746802,49.6176687 123.740792,46.985695 125.000798,44.3536818 C126.260805,41.7216687 127.77279,39.2016939 129.536798,36.7936818 C131.300807,34.3856698 133.190788,32.3136905 135.206798,30.5776818 C137.222809,28.8416732 139.322788,27.5396862 141.506798,26.6716818 C143.690809,25.8036775 145.846788,25.5936796 147.974798,26.0416818 C148.982804,26.265683 149.766796,26.6436792 150.326798,27.1756818 C150.886801,27.7076845 151.292797,28.2956786 151.544798,28.9396818 C151.7968,29.5836851 151.936798,30.2276786 151.964798,30.8716818 C151.992799,31.5156851 151.978799,32.0616796 151.922798,32.5096818 C151.642797,34.9736942 150.690807,37.3956699 149.066798,39.7756818 C147.44279,42.1556937 145.52481,44.2136732 143.312798,45.9496818 C141.100787,47.6856905 138.83281,48.9736776 136.508798,49.8136818 C134.184787,50.653686 132.210807,50.7376852 130.586798,50.0656818 C129.410793,53.2576978 128.766799,55.9456709 128.654798,58.1296818 C128.598798,60.0896916 128.962795,61.3636789 129.746798,61.9516818 C130.530802,62.5396848 131.566792,62.6096841 132.854798,62.1616818 C134.142805,61.7136796 135.64079,60.8176886 137.348798,59.4736818 C139.056807,58.1296751 140.80679,56.5336911 142.598798,54.6856818 C144.222807,52.9496732 145.90279,50.8776939 147.638798,48.4696818 C148.528404,47.2357129 149.425355,46.0091062 150.32966,44.789852 Z M115.970798,30.5776818 C115.690797,30.5776818 115.480799,30.5916817 115.340798,30.6196818 C115.200798,30.647682 115.088799,30.7036814 115.004798,30.7876818 L114.710798,31.0816818 C114.598798,31.1936824 114.4028,31.3616807 114.122798,31.5856818 C113.674796,31.9216835 113.2688,32.3556792 112.904798,32.8876818 C112.540797,33.4196845 112.260799,34.0076786 112.064798,34.6516818 C111.868798,35.2956851 111.826798,35.9116789 111.938798,36.4996818 C112.050799,37.0876848 112.358796,37.5776799 112.862798,37.9696818 C111.574792,38.3616838 110.622802,38.445683 110.006798,38.2216818 C109.390795,37.9976807 108.9428,37.6056846 108.662798,37.0456818 L102.026798,53.2576818 C101.634797,54.3776874 101.3268,55.4136771 101.102798,56.3656818 C100.878797,57.3176866 100.766798,58.1296785 100.766798,58.8016818 C100.766798,59.4736852 100.878797,60.0056799 101.102798,60.3976818 C101.3268,60.7896838 101.690796,60.9576821 102.194798,60.9016818 C102.866802,60.8456816 103.804792,60.0756893 105.008798,58.5916818 C106.212805,57.1076744 107.472792,55.245693 108.788798,53.0056818 C110.104805,50.7656706 111.392792,48.3576947 112.652798,45.7816818 C113.912805,43.205669 114.934795,40.797693 115.718798,38.5576818 C116.502802,36.3176706 116.964798,34.4416894 117.104798,32.9296818 C117.244799,31.4176743 116.866803,30.6336821 115.970798,30.5776818 Z M73.4667985,62.5816818 C74.362803,62.5256816 75.4127925,61.783689 76.6167985,60.3556818 C77.8208045,58.9276747 79.066792,57.093693 80.3547985,54.8536818 C79.7947957,53.5096751 79.5427982,51.7736925 79.5987985,49.6456818 C79.6547988,48.469676 79.9207961,47.4196865 80.3967985,46.4956818 C80.8728009,45.5716772 81.4467951,44.8576844 82.1187985,44.3536818 C82.7908018,43.8496793 83.4487953,43.5976818 84.0927985,43.5976818 C84.7368017,43.5976818 85.2547965,43.877679 85.6467985,44.4376818 C86.542803,42.4216718 87.3267951,40.4616914 87.9987985,38.5576818 C88.6708018,36.6536723 89.1887967,34.9596893 89.5527985,33.4756818 C89.9168003,31.9916744 90.0987985,30.8016863 90.0987985,29.9056818 C90.0987985,29.0096774 89.846801,28.5616818 89.3427985,28.5616818 C88.1667926,28.5616818 86.822806,29.4016734 85.3107985,31.0816818 C83.7987909,32.7616902 82.2728062,34.8756691 80.7327985,37.4236818 C79.1927908,39.9716946 77.7508052,42.7156671 76.4067985,45.6556818 C75.0627918,48.5956965 73.9988024,51.3256692 73.2147985,53.8456818 C72.4307946,56.3656944 72.0107988,58.4656734 71.9547985,60.1456818 C71.8987982,61.8256902 72.4027932,62.6376821 73.4667985,62.5816818 Z M144.530798,28.9816818 C143.522793,29.3736838 142.444804,30.1716758 141.296798,31.3756818 C140.148793,32.5796879 139.000804,34.0356733 137.852798,35.7436818 C136.704793,37.4516904 135.598804,39.2996719 134.534798,41.2876818 C133.470793,43.2756918 132.518803,45.2776718 131.678798,47.2936818 C133.134806,46.733679 134.660791,45.8516879 136.256798,44.6476818 C137.852806,43.4436758 139.350791,42.1136891 140.750798,40.6576818 C142.150805,39.2016746 143.354793,37.6896897 144.362798,36.1216818 C145.370804,34.553674 145.986797,33.0976886 146.210798,31.7536818 C146.266799,31.4176802 146.322798,31.0536838 146.378798,30.6616818 C146.434799,30.2696799 146.420799,29.9056835 146.336798,29.5696818 C146.252798,29.2336802 146.0708,28.9956825 145.790798,28.8556818 C145.510797,28.7156811 145.090801,28.7576807 144.530798,28.9816818 Z M44.8227985,62.5816818 C45.718803,62.5256816 46.7687925,61.783689 47.9727985,60.3556818 C49.1768045,58.9276747 50.422792,57.093693 51.7107985,54.8536818 C51.1507957,53.5096751 50.8987982,51.7736925 50.9547985,49.6456818 C51.0107988,48.469676 51.2767961,47.4196865 51.7527985,46.4956818 C52.2288009,45.5716772 52.8027951,44.8576844 53.4747985,44.3536818 C54.1468018,43.8496793 54.8047953,43.5976818 55.4487985,43.5976818 C56.0928017,43.5976818 56.6107965,43.877679 57.0027985,44.4376818 C57.898803,42.4216718 58.6827951,40.4616914 59.3547985,38.5576818 C60.0268018,36.6536723 60.5447967,34.9596893 60.9087985,33.4756818 C61.2728003,31.9916744 61.4547985,30.8016863 61.4547985,29.9056818 C61.4547985,29.0096774 61.202801,28.5616818 60.6987985,28.5616818 C59.5227926,28.5616818 58.178806,29.4016734 56.6667985,31.0816818 C55.1547909,32.7616902 53.6288062,34.8756691 52.0887985,37.4236818 C50.5487908,39.9716946 49.1068052,42.7156671 47.7627985,45.6556818 C46.4187918,48.5956965 45.3548024,51.3256692 44.5707985,53.8456818 C43.7867946,56.3656944 43.3667988,58.4656734 43.3107985,60.1456818 C43.2547982,61.8256902 43.7587932,62.6376821 44.8227985,62.5816818 Z" transform="rotate(-5 92.255 47.943)"/>
    <path d="M5.7486415,73.3962426 C5.7486415,72.177616 6.738195,71.1960061 7.94153784,71.2036454 L180.705203,72.3004216 C181.257714,72.3039292 181.694856,72.750244 181.681313,73.3085251 L181.685474,73.1370005 C181.672053,73.6902531 181.217059,74.142449 180.661014,74.1470766 L7.94098399,75.5845156 C6.73018667,75.5945923 5.7486415,74.6233651 5.7486415,73.3962426 L5.7486415,73.3962426 Z" transform="rotate(-6 93.717 73.395)"/>
  </g>
</svg>
