<svg xmlns="http://www.w3.org/2000/svg" width="223" height="139" viewBox="0 0 223 139">
  <g fill="none" fill-rule="evenodd" transform="translate(-11 -10)">
    <path stroke="#FA5FA0" stroke-width="3" d="M74.0045661 148.5C74.0045661 148.5 70.8912849 95.6210937 227.25066 69.5039062M227.25066 69.5039062L216.103987 68.3242071 217.092491 74.2422186 227.25066 69.5039062z"/>
    <path fill="#FA5FA0" d="M200.459502,74.5715408 C197.718653,76.4463359 195.580437,77.383722 194.044807,77.383722 C193.707891,77.383722 193.415902,77.3275702 193.16883,77.2152649 C192.854376,77.1029597 192.562386,76.6762061 192.292854,75.9349915 C192.068243,75.283621 191.95594,74.7108729 191.95594,74.2167298 C191.95594,73.4400529 192.195653,72.3689038 192.675082,71.0032778 C191.635985,71.4668272 190.610141,71.662 189.597541,71.5888001 C189.395392,71.8807937 189.182015,72.172783 188.957405,72.4647766 C187.654664,74.2841217 186.239639,75.7216073 184.712287,76.7772766 C183.611696,77.5184913 182.825571,77.8890931 182.353889,77.8890931 C181.814824,77.8890931 181.455452,77.7992502 181.275764,77.6195618 C180.893926,77.4398734 180.366099,77.0692716 179.692268,76.5077454 C179.467657,76.328057 179.24305,75.918149 179.01844,75.2780091 C178.98235,75.1751537 178.94945,75.0773724 178.919739,74.9846652 C176.47322,76.5840424 174.5408,77.383722 173.122444,77.383722 C172.785528,77.383722 172.493539,77.3275702 172.246467,77.2152649 C171.932012,77.1029597 171.640023,76.6762061 171.370491,75.9349915 C171.14588,75.283621 171.033576,74.7108729 171.033576,74.2167298 C171.033576,73.4400529 171.27329,72.3689038 171.752719,71.0032778 C170.713621,71.4668272 169.687777,71.662 168.675178,71.5888001 C168.473029,71.8807937 168.259652,72.172783 168.035041,72.4647766 C166.7323,74.2841217 165.317275,75.7216073 163.789924,76.7772766 C162.689333,77.5184913 161.903208,77.8890931 161.431526,77.8890931 C160.89246,77.8890931 160.533089,77.7992502 160.353401,77.6195618 C159.971563,77.4398734 159.443736,77.0692716 158.769905,76.5077454 C158.545294,76.328057 158.320687,75.918149 158.096076,75.2780091 C157.994433,74.9883262 157.918089,74.7388917 157.867042,74.5297043 C157.425673,74.9448979 157.041569,75.2785605 156.714729,75.5306946 C154.80554,77.0131239 153.435436,77.7543274 152.604377,77.7543274 C152.245,77.7543274 151.795786,77.5184899 151.256721,77.0468079 C150.829961,76.6874311 150.549202,76.3954418 150.414436,76.1708313 C150.234747,75.8114545 150.167365,75.0028689 150.212287,73.7450501 C150.279671,72.5995365 150.751346,71.3641973 151.627326,70.0389954 C152.054086,69.3651639 153.143431,67.9389086 154.895393,65.7601868 C154.580938,65.3109658 154.345101,65.0077462 154.187873,64.8505188 C153.985724,64.6034473 153.693735,64.2889973 153.311897,63.9071595 C151.896851,65.6591213 150.987192,66.782157 150.582893,67.2763001 C145.663923,73.6552382 143.182014,76.8446595 143.137092,76.8446595 C143.024787,76.8446595 142.687876,76.5526702 142.12635,75.9686829 C141.677129,75.541923 141.452522,75.1151694 141.452522,74.6884095 C141.452522,74.6210263 141.901736,74.0931996 142.800178,73.1049134 C144.282607,71.4427957 146.360223,69.1181119 149.033088,66.1307923 C149.998913,65.0526619 151.043336,63.828553 152.166389,62.458429 C152.143928,61.4252207 152.37415,60.4931011 152.857063,59.6620423 C153.339975,58.8309834 154.26648,57.8988638 155.636604,56.8656556 C156.512585,56.1918241 157.163945,55.8212223 157.590705,55.7538391 C157.747933,55.7313781 157.893927,55.8492968 158.028694,56.1075989 C158.16346,56.365901 158.208381,56.6410447 158.163459,56.9330384 C158.051154,57.8090193 157.60194,58.7523693 156.815803,59.7631165 L154.726936,62.1888977 C155.198618,62.772885 155.58045,63.2108689 155.872444,63.5028626 C157.08534,64.6932982 157.69178,65.6478785 157.69178,66.3666321 C157.69178,66.9506194 157.220105,67.8041265 156.276741,68.927179 C155.602909,69.7133157 154.917857,70.510671 154.221565,71.3192688 C153.098512,72.8241592 152.536994,73.857352 152.536994,74.4188782 C152.536994,74.8007161 152.750371,74.9916321 153.177131,74.9916321 C153.626352,74.9916321 155.164911,73.9921304 157.792854,71.993097 C157.927901,71.8940626 158.133316,71.7300723 158.409102,71.5011249 C158.533392,71.1752332 158.676121,70.833853 158.837287,70.4769837 C159.690807,68.5677944 160.651003,66.9730838 161.717903,65.692804 C162.784802,64.4125242 163.879762,63.3568706 165.002815,62.5258118 C166.305556,61.5599867 167.540895,61.0209296 168.708869,60.9086243 C168.843636,60.8861633 168.96717,60.9198543 169.079475,61.0096985 C169.101936,60.9872375 169.135627,60.9647768 169.180549,60.9423157 C169.360238,60.8524715 169.596075,60.9535447 169.888069,61.2455384 C170.651744,62.0092141 171.078498,62.8627212 171.168342,63.8060852 C171.34803,65.4457419 170.910047,67.3549025 169.854377,69.5336243 C170.707897,69.6234685 171.561404,69.4325524 172.414924,68.9608704 C172.479656,68.9186537 172.544212,68.8762607 172.608592,68.8336914 C173.89771,65.8389373 175.978169,61.8720626 178.849983,56.9330384 C180.653413,53.7985049 182.456817,50.8487074 184.260245,48.0835655 C184.001258,48.1015989 183.758872,48.1202708 183.533088,48.1395813 C183.396225,48.1566892 183.207242,48.0109178 182.966136,47.7022636 C172.676293,47.7132414 165.89122,47.8590127 162.610725,48.1395813 C162.431036,48.1620424 162.161508,47.9037442 161.802131,47.364679 C161.442754,46.8256138 161.274299,46.3314781 161.29676,45.8822571 C161.319221,45.4330361 164.149271,45.0399736 169.786994,44.7030579 C174.346588,44.4110643 178.760118,44.2426089 183.027717,44.1976868 C184.105847,44.1976868 185.419799,44.1864564 186.969612,44.1639954 C187.328988,43.6923134 187.576056,43.4003241 187.710823,43.2880188 C187.980355,43.1083304 188.474491,43.0746394 189.193244,43.1869446 C189.507699,43.2318667 189.84461,43.5350863 190.203987,44.0966126 C193.820216,44.0292294 195.706916,44.0966116 195.864143,44.298761 C195.892535,44.3271533 195.914946,44.3675085 195.931375,44.4198269 C198.659214,44.2992907 201.332106,44.2252444 203.95008,44.1976868 C205.028211,44.1976868 206.342162,44.1864564 207.891975,44.1639954 C208.251352,43.6923134 208.49842,43.4003241 208.633186,43.2880188 C208.902718,43.1083304 209.396854,43.0746394 210.115608,43.1869446 C210.430062,43.2318667 210.766973,43.5350863 211.12635,44.0966126 C214.742579,44.0292294 216.629279,44.0966116 216.786506,44.298761 C216.853889,44.3661442 216.88758,44.5009085 216.88758,44.7030579 C216.88758,45.2645841 216.741586,45.9496359 216.449592,46.7582337 C216.135137,47.6342146 215.820687,48.0721985 215.506233,48.0721985 C214.630252,48.0048154 212.597557,47.9037422 209.408088,47.7689759 C206.86999,51.2279775 204.657609,54.5858541 202.770881,57.8427063 C201.063841,60.7626428 199.356827,63.6713051 197.649787,66.5687806 C195.313838,70.7016137 194.145881,73.2845957 194.145881,74.317804 C194.145881,74.7445639 194.41541,74.9579407 194.954475,74.9579407 C196.002781,74.9579407 197.737536,74.2636782 200.158779,72.8751358 C200.287823,72.0325506 200.619459,71.0197947 201.153694,69.836847 C201.984752,67.9725798 203.029176,66.2880264 204.286994,64.783136 C205.005748,63.884694 205.915407,62.8627316 207.015998,61.7172181 C207.083381,61.694757 207.173224,61.6835266 207.28553,61.6835266 C207.622445,61.6835266 208.004277,61.8295213 208.431037,62.1215149 C208.857797,62.4135086 209.071174,62.7167282 209.071174,63.0311829 C209.071174,63.1884102 208.992562,63.3344049 208.835334,63.4691712 C207.66736,64.4799184 206.398329,66.198163 205.028205,68.6239563 C203.747926,70.8251392 203.029183,72.6107659 202.871955,73.9808899 C202.804572,74.4076499 202.928106,74.7557909 203.242561,75.0253235 C203.354866,75.0927067 203.736698,75.0365549 204.388069,74.8568665 C205.308972,74.3851844 206.735227,72.9027774 208.666877,70.4096009 C208.93641,70.027763 209.340703,69.4437845 209.879768,68.6576477 C211.721574,65.4906397 213.080447,63.0536524 213.956428,61.3466126 C214.248422,61.1444631 214.787479,61.1107721 215.573616,61.2455384 C215.708382,61.2679994 215.876837,61.4701458 216.078987,61.8519837 C216.281136,62.2338215 216.348518,62.5931929 216.281135,62.9301087 C216.056525,64.1430054 213.170323,69.2865086 207.622444,78.3607727 C201.872415,87.7719526 198.278701,92.9154559 196.841194,93.7914368 C195.538453,94.5551125 194.595103,94.7235678 194.011116,94.2968079 C192.573608,93.2635996 191.854866,90.3549373 191.854866,85.5707337 C191.854866,84.7845969 191.888557,84.0883148 191.95594,83.4818665 C192.045784,82.7406518 192.281621,82.3700501 192.663459,82.3700501 C193.135141,82.3700501 193.370979,82.7518822 193.370979,83.5155579 C193.348518,84.7059935 193.460821,86.0648667 193.707893,87.5922181 C194.044809,89.6810957 194.505253,90.8715135 195.089241,91.1635071 C195.897838,91.5902671 199.278176,86.7836745 205.230354,76.7435852 C204.578983,77.080501 204.129769,77.2489563 203.882698,77.2489563 C203.343632,77.2489563 202.984261,77.1591135 202.804573,76.9794251 C202.400274,76.7772756 201.861217,76.4066739 201.187385,75.8676087 C200.985236,75.6879203 200.749398,75.2723971 200.479866,74.6210266 C200.472982,74.6043922 200.466194,74.5878969 200.459502,74.5715408 Z M195.0476,47.7546874 C194.893024,47.966362 194.738447,48.0721985 194.583869,48.0721985 C193.871864,48.0174289 192.395668,47.9404017 190.155246,47.8411152 C189.536976,47.8562755 188.950828,47.8726713 188.396803,47.8903025 C185.895919,51.3065103 183.713179,54.6239458 181.848518,57.8427063 C180.141478,60.7626428 178.434464,63.6713051 176.727424,66.5687806 C174.391475,70.7016137 173.223518,73.2845957 173.223518,74.317804 C173.223518,74.7445639 173.493046,74.9579407 174.032112,74.9579407 C175.022601,74.9579407 176.625909,74.338147 178.842067,73.0985451 C179.004878,72.3448535 179.310738,71.4710039 179.759651,70.4769837 C180.613171,68.5677944 181.573366,66.9730838 182.640266,65.692804 C183.707166,64.4125242 184.802126,63.3568706 185.925178,62.5258118 C187.227919,61.5599867 188.463258,61.0209296 189.631233,60.9086243 C189.765999,60.8861633 189.889533,60.9198543 190.001838,61.0096985 C190.024299,60.9872375 190.05799,60.9647768 190.102912,60.9423157 C190.282601,60.8524715 190.518438,60.9535447 190.810432,61.2455384 C191.574108,62.0092141 192.000861,62.8627212 192.090705,63.8060852 C192.270394,65.4457419 191.83241,67.3549025 190.776741,69.5336243 C191.63026,69.6234685 192.483768,69.4325524 193.337287,68.9608704 C193.40202,68.9186537 193.466576,68.8762607 193.530955,68.8336914 C194.820073,65.8389373 196.900532,61.8720626 199.772346,56.9330384 C201.659074,53.6537251 203.545774,50.5766074 205.432502,47.7015931 L205.162971,47.7015931 C201.331014,47.7015931 197.959227,47.7192911 195.0476,47.7546874 Z M90.2430462,72.5298582 C90.3157133,72.2206234 90.4050696,71.9069377 90.5111155,71.5888001 C91.1175639,69.7919161 92.0216076,67.8153734 93.2232737,65.6591126 C94.4249399,63.5028518 95.2616014,62.4022769 95.7332835,62.3573548 C96.7440307,62.2450495 97.384161,62.6044209 97.6536936,63.4354798 C97.810921,63.8847008 97.2718639,65.153731 96.0365061,67.2426087 C94.1048559,70.521922 93.0716631,72.2963183 92.9368968,72.5658509 C92.5101368,73.3969097 92.2742993,74.3290293 92.2293772,75.3622376 C92.1619941,76.7099006 91.8587745,77.383722 91.3197093,77.383722 C90.451041,77.383722 90.0130875,76.4339691 90.005836,74.5344351 C87.2389872,76.4339674 85.0827221,77.383722 83.5369944,77.383722 C83.2000787,77.383722 82.9080894,77.3275702 82.6610179,77.2152649 C82.3465632,77.1029597 82.0545739,76.6762061 81.7850413,75.9349915 C81.5604308,75.283621 81.4481272,74.7108729 81.4481272,74.2167298 C81.4481272,74.1428571 81.4502958,74.0663205 81.454633,73.9871198 C80.4989507,74.5648917 79.3737389,75.1467973 78.0789866,75.7328431 C75.6531932,76.8558955 73.8001844,77.4174134 72.5199046,77.4174134 C72.1605278,77.4174134 71.8629233,77.3668768 71.6270823,77.265802 C71.3912413,77.1647273 71.161019,76.8783532 70.9364085,76.4066712 C70.8016422,76.316827 70.6668779,76.2045234 70.5321116,76.0697571 C70.3299622,75.9125298 70.1278157,75.5138521 69.9256663,74.8737122 C69.7235169,74.2335723 69.633674,73.7899732 69.656135,73.5429016 C69.7010571,73.0487586 69.9818161,72.0492568 70.4984202,70.5443665 C71.3968622,68.7025604 72.3795184,67.1696168 73.4464183,65.9454895 C74.5133181,64.7213623 75.6082779,63.7274758 76.7313304,62.9638001 C78.0340713,62.0653581 79.2469497,61.5712224 80.3700022,61.4813782 C80.4823075,61.4813782 80.5946111,61.5038389 80.7069163,61.548761 C80.9202961,61.4589168 81.1449032,61.5487597 81.4144358,61.8182923 C82.1556505,62.604429 82.5599433,63.4579361 82.6273265,64.3788391 C82.6947096,65.4345085 82.4925632,66.6249263 82.0208811,67.9501282 C81.8411927,68.4667324 81.470591,68.7250306 80.9090647,68.7250306 C80.1903111,68.7250306 79.8309397,68.4891931 79.8309397,68.017511 C79.8309397,68.2870436 80.0106254,67.8153687 80.3700022,66.602472 C80.8416843,64.9178932 80.9876789,63.9183915 80.8079905,63.6039368 C80.7630684,63.5365537 80.7069166,63.4916322 80.6395335,63.4691712 C80.1678514,63.5140933 79.651255,63.7723915 79.0897288,64.2440735 C77.1580785,65.816347 75.6082893,67.5570523 74.4403147,69.4662415 C73.0252686,71.7797296 72.3626776,73.4867438 72.4525218,74.5873352 C72.7894375,74.8344068 73.1038875,74.9579407 73.3958811,74.9579407 C74.3617063,74.9579407 76.0350294,74.4750354 78.4159007,73.5092102 C79.9527987,72.9085834 81.0937108,72.4121658 81.8386561,72.0199485 C82.7430665,68.9207251 85.2183467,63.891782 89.2645335,56.9330384 C91.1512617,53.6537251 93.0379616,50.5766074 94.9246897,47.7015931 L94.6551585,47.7015931 C83.6492441,47.7015931 76.4393552,47.8475877 73.0252757,48.1395813 C72.8455873,48.1620424 72.5760587,47.9037442 72.2166819,47.364679 C71.8573051,46.8256138 71.6888498,46.3314781 71.7113108,45.8822571 C71.7337719,45.4330361 74.5638217,45.0399736 80.2015452,44.7030579 C84.7611383,44.4110643 89.1746684,44.2426089 93.4422679,44.1976868 C94.5203983,44.1976868 95.83435,44.1864564 97.3841624,44.1639954 C97.7435392,43.6923134 97.990607,43.4003241 98.1253733,43.2880188 C98.3949059,43.1083304 98.8890416,43.0746394 99.6077952,43.1869446 C99.9222499,43.2318667 100.259161,43.5350863 100.618537,44.0966126 C104.234766,44.0292294 106.121466,44.0966116 106.278694,44.298761 C106.346077,44.3661442 106.379768,44.5009085 106.379768,44.7030579 C106.379768,45.2645841 106.233773,45.9496359 105.94178,46.7582337 C105.627325,47.6342146 105.312875,48.0721985 104.99842,48.0721985 C104.122439,48.0048154 102.089745,47.9037422 98.9002757,47.7689759 C96.362177,51.2279775 94.1497968,54.5858541 92.2630686,57.8427063 C90.5560289,60.7626428 88.8490147,63.6713051 87.1419749,66.5687806 C84.8060257,70.7016137 83.6380686,73.2845957 83.6380686,74.317804 C83.6380686,74.7445639 83.9075972,74.9579407 84.4466624,74.9579407 C85.5785295,74.9579407 87.5106411,74.1485871 90.2430462,72.5298582 Z M57.4481651,70.8065247 C57.4738755,70.7316881 57.5002301,70.6555325 57.5272288,70.5780579 C58.4256708,68.7137908 59.408327,67.1752319 60.4752268,65.9623352 C61.5421267,64.7494386 62.6370865,63.7611672 63.760139,62.9974915 C65.0628798,62.0765885 66.2757583,61.5824528 67.3988108,61.5150696 L67.499885,61.5150696 C67.5672682,61.4701475 67.6121896,61.4364564 67.6346507,61.4139954 C67.8368001,61.3466122 68.0614073,61.4476855 68.3084788,61.7172181 C68.5555503,61.9867507 68.85877,62.5145774 69.2181468,63.3007141 C69.779673,62.5370385 70.1839658,62.143976 70.4310374,62.1215149 C71.4417846,62.0092097 72.0931453,62.3685811 72.385139,63.1996399 C72.5199053,63.6263999 71.9471571,64.8841998 70.6668772,66.9730774 C68.8026101,70.0951634 67.758187,71.8695597 67.5335765,72.2963196 C67.1068165,73.1273785 66.870979,74.059498 66.8260569,75.0927063 C66.7362127,76.4628304 66.4666842,77.1478821 66.0174632,77.1478821 C65.1864043,77.1478821 64.7484204,76.2269929 64.7034983,74.3851868 C62.7269259,76.4291423 61.1322153,77.4286441 59.9193186,77.383722 L59.616096,77.383722 C59.5262518,77.406183 59.3802572,77.3724919 59.1781077,77.2826477 C58.9085751,77.1928035 58.369518,76.7997411 57.5609202,76.1034485 C57.3587708,75.9237601 57.1566243,75.5138521 56.9544749,74.8737122 C56.8298816,74.4791666 56.7479511,74.1635488 56.7086828,73.9268558 C55.9971989,74.631728 55.4053039,75.1663386 54.9329905,75.5306946 C53.0238013,77.0131239 51.6536978,77.7543274 50.822639,77.7543274 C50.4632622,77.7543274 50.0140479,77.5184899 49.4749827,77.0468079 C49.0482228,76.6874311 48.7674638,76.3954418 48.6326975,76.1708313 C48.4530092,75.8114545 48.385627,75.0028689 48.4305491,73.7450501 C48.4979323,72.5995365 48.9696072,71.3641973 49.8455882,70.0389954 C50.2723481,69.3651639 51.3616927,67.9389086 53.1136546,65.7601868 C52.7991999,65.3109658 52.5633624,65.0077462 52.406135,64.8505188 C52.2039856,64.6034473 51.9119963,64.2889973 51.5301585,63.9071595 C50.1151123,65.6591213 49.2054535,66.782157 48.8011546,67.2763001 C47.3410925,69.1697139 46.0957446,70.7821194 45.065109,72.113519 C45.0016714,72.315315 44.8375952,72.5271737 44.5728782,72.7490979 C42.4572449,75.4794812 41.3847437,76.8446595 41.3553538,76.8446595 C41.2430486,76.8446595 40.9061379,76.5526702 40.3446116,75.9686829 C40.1723217,75.8050075 40.0330716,75.6413331 39.9268607,75.4776589 C39.7440937,75.5626329 39.5576604,75.6476943 39.3675608,75.7328431 C36.9642285,76.8558955 35.12245,77.4174134 33.8421702,77.4174134 C33.4603324,77.4174134 33.1514976,77.3668768 32.9156565,77.265802 C32.6798155,77.1647273 32.4495932,76.8783532 32.2249827,76.4066712 C32.1126775,76.316827 31.9891435,76.2045234 31.8543772,76.0697571 C31.6533354,75.9133913 31.4467428,75.5182139 31.2345933,74.8842132 C28.715633,76.5505588 26.7322989,77.383722 25.284553,77.383722 C24.9476373,77.383722 24.655648,77.3275702 24.4085765,77.2152649 C24.0941218,77.1029597 23.8021325,76.6762061 23.5325999,75.9349915 C23.3079894,75.283621 23.1956858,74.7108729 23.1956858,74.2167298 C23.1956858,74.0018947 23.2140268,73.764529 23.2507088,73.5046326 C22.0237742,74.9288924 21.174383,75.8400812 20.7025218,76.2382141 C19.6243914,77.1815782 18.3890522,77.6532532 16.9964671,77.6532532 C16.6595513,77.6532532 16.2889496,77.2826514 15.8846507,76.5414368 C15.4129686,75.6879169 15.1771311,74.7670277 15.1771311,73.7787415 C15.1771311,72.9701437 15.9520257,70.9711403 17.5018382,67.7816712 C17.1424614,68.0961259 16.8055507,68.3881151 16.491096,68.6576477 C16.0867971,68.9945635 14.1439454,70.7577295 10.6624827,73.9471985 C8.48376087,75.9237709 7.24842167,76.9120423 6.95642802,76.9120423 C6.86658382,76.9120423 6.81043204,76.8334298 6.78797099,76.6762024 C6.57459118,76.6762024 6.3892903,76.378598 6.19837138,75.7833802 C6.00745245,75.1881623 5.94568549,74.7333329 6.01306864,74.4188782 C6.19275704,73.4979752 7.22594983,71.3529771 9.11267802,67.9838196 C10.0785032,66.2767798 10.830937,64.6259174 11.3700022,63.0311829 C11.6395348,62.2225851 11.9315241,61.8295226 12.2459788,61.8519837 C12.7401219,61.8744447 13.2117969,62.1552036 13.6610179,62.6942688 C14.1102389,63.233334 14.334846,63.6600876 14.334846,63.9745423 C14.334846,64.0194644 13.9193228,64.8729715 13.088264,66.5350891 C12.7513482,67.2089206 11.6956947,69.0057777 9.92127177,71.9257141 C11.358779,70.8700448 13.7171538,68.8036592 16.9964671,65.7264954 C17.5804544,65.1874302 18.6361079,64.1205463 20.1634593,62.5258118 C21.0169792,61.6498309 21.5672666,61.211847 21.8143382,61.211847 C22.2410981,61.211847 22.6678517,61.5262969 23.0946116,62.1552063 C23.5213716,62.4022779 23.7010573,62.9862564 23.6336741,63.9071595 C23.6336741,64.0868479 23.1844599,64.6820568 22.2860179,65.692804 C21.7694137,66.2767913 20.9159066,67.5682823 19.725471,69.5673157 C18.7596458,71.1845113 18.1756673,72.4872326 17.9735179,73.4755188 C17.7938295,74.2616556 17.8275205,74.7670216 18.0745921,74.9916321 C18.1644363,75.0814763 18.2767398,75.1263977 18.4115061,75.1263977 C19.5443524,75.1263977 21.5448668,73.3141442 24.4131085,69.6895833 C25.6580099,66.6102774 27.8576653,62.3581085 31.0120921,56.9330384 C32.8988203,53.6537251 34.7855201,50.5766074 36.6722483,47.7015931 L36.4027171,47.7015931 C25.3968027,47.7015931 18.1869138,47.8475877 14.7728343,48.1395813 C14.5931459,48.1620424 14.3236173,47.9037442 13.9642405,47.364679 C13.6048637,46.8256138 13.4364084,46.3314781 13.4588694,45.8822571 C13.4813305,45.4330361 16.3113803,45.0399736 21.9491038,44.7030579 C26.5086969,44.4110643 30.922227,44.2426089 35.1898265,44.1976868 C36.2679568,44.1976868 37.5819086,44.1864564 39.131721,44.1639954 C39.4910978,43.6923134 39.7381656,43.4003241 39.8729319,43.2880188 C40.1424645,43.1083304 40.6366002,43.0746394 41.3553538,43.1869446 C41.6698085,43.2318667 42.0067192,43.5350863 42.366096,44.0966126 C45.982325,44.0292294 47.8690249,44.0966116 48.0262522,44.298761 C48.0936354,44.3661442 48.1273265,44.5009085 48.1273265,44.7030579 C48.1273265,45.2645841 47.9813318,45.9496359 47.6893382,46.7582337 C47.3748835,47.6342146 47.0604335,48.0721985 46.7459788,48.0721985 C45.8699979,48.0048154 43.8373033,47.9037422 40.6478343,47.7689759 C38.1097356,51.2279775 35.8973554,54.5858541 34.0106272,57.8427063 C32.3035875,60.7626428 30.5965733,63.6713051 28.8895335,66.5687806 C26.5535843,70.7016137 25.3856272,73.2845957 25.3856272,74.317804 C25.3856272,74.7445639 25.6551558,74.9579407 26.194221,74.9579407 C27.1906238,74.9579407 28.8071835,74.3307245 31.0439338,73.0762772 C31.1577743,72.516153 31.4166904,71.672187 31.8206858,70.5443665 C32.6966668,68.7025604 33.6737078,67.1696168 34.7518382,65.9454895 C35.8299686,64.7213623 36.9193131,63.7274758 38.0199046,62.9638001 C39.3451065,62.0653581 40.5692154,61.5712224 41.6922679,61.4813782 C41.8045731,61.4813782 41.9056463,61.5038389 41.9954905,61.548761 L42.0628733,61.548761 C42.2425617,61.4589168 42.4671689,61.5487597 42.7367015,61.8182923 C43.455455,62.604429 43.8485175,63.4579361 43.9159007,64.3788391 C44.0057449,65.4345085 43.8148288,66.6249263 43.3431468,67.9501282 C43.2982247,68.0624335 43.2533032,68.1522763 43.2083811,68.2196595 C43.0286927,68.5790363 42.6749365,69.0731719 42.1471018,69.7020813 C41.6192672,70.3309907 40.322161,70.6454407 38.2557444,70.6454407 C37.0877698,70.6454407 36.1107288,70.4882157 35.3245921,70.173761 C34.9198563,70.9103802 34.5938872,71.5726067 34.346684,72.1604426 C34.3472555,72.1718212 34.3475413,72.1834222 34.3475413,72.1952454 C34.3475413,72.3619101 34.2743661,72.5358909 34.1280144,72.7171895 C33.8457305,73.4959706 33.7279889,74.1193504 33.7747874,74.5873352 C34.0892421,74.8344068 34.4036921,74.9579407 34.7181468,74.9579407 C35.6839719,74.9579407 37.357295,74.4750354 39.7381663,73.5092102 C40.2655247,73.3007197 40.7468436,73.1047857 41.1821236,72.9214078 C42.6523916,71.2732587 44.6754484,69.009741 47.2513499,66.1307923 C48.217175,65.0526619 49.2615982,63.828553 50.3846507,62.458429 C50.3621896,61.4252207 50.5924119,60.4931011 51.0753245,59.6620423 C51.5582371,58.8309834 52.4847415,57.8988638 53.8548655,56.8656556 C54.7308465,56.1918241 55.3822071,55.8212223 55.8089671,55.7538391 C55.9661944,55.7313781 56.1121891,55.8492968 56.2469554,56.1075989 C56.3817217,56.365901 56.4266431,56.6410447 56.381721,56.9330384 C56.2694157,57.8090193 55.8202015,58.7523693 55.0340647,59.7631165 L52.9451975,62.1888977 C53.4168796,62.772885 53.7987117,63.2108689 54.0907054,63.5028626 C55.3036021,64.6932982 55.9100413,65.6478785 55.9100413,66.3666321 C55.9100413,66.9506194 55.4383663,67.8041265 54.4950022,68.927179 C53.8211707,69.7133157 53.136119,70.510671 52.4398265,71.3192688 C51.316774,72.8241592 50.7552561,73.857352 50.7552561,74.4188782 C50.7552561,74.8007161 50.9686329,74.9916321 51.3953929,74.9916321 C51.8446139,74.9916321 53.3831727,73.9921304 56.0111155,71.993097 C56.2569488,71.8128192 56.7359623,71.4172977 57.4481651,70.8065247 Z M13.6610179,56.5287415 C13.4139463,56.9779625 12.9647321,57.4720982 12.3133616,58.0111634 C11.594608,58.5726896 11.0330902,58.8534485 10.6287913,58.8534485 C9.95495981,58.8534485 9.61804911,58.2245486 9.61804911,56.9667298 C9.61804911,55.8661383 9.89880802,55.0014009 10.4603343,54.3724915 C11.246471,53.5414326 12.1448995,53.1259095 13.1556468,53.1259095 C13.3353352,53.1259095 13.4813298,53.1483702 13.593635,53.1932923 C13.9080897,53.3280586 14.0765451,53.7885032 14.0990061,54.5746399 C14.0990061,55.3383156 13.9530115,55.9896763 13.6610179,56.5287415 Z M9.21375224,63.4354798 C9.37097959,63.8847008 8.83192248,65.153731 7.59656474,67.2426087 C5.66491445,70.521922 4.63172166,72.2963183 4.49695536,72.5658509 C4.07019542,73.3969097 3.83435793,74.3290293 3.78943583,75.3622376 C3.72205268,76.7099006 3.41883306,77.383722 2.87976786,77.383722 C2.00378692,77.383722 1.56580302,76.4179113 1.56580302,74.486261 C1.56580302,73.565358 1.73425836,72.5995473 2.07117411,71.5888001 C2.67762246,69.7919161 3.58166615,67.8153734 4.78333232,65.6591126 C5.98499848,63.5028518 6.82166003,62.4022769 7.29334208,62.3573548 C8.30408932,62.2450495 8.94421964,62.6044209 9.21375224,63.4354798 Z M42.0965647,63.6039368 C42.0741037,63.5365537 42.0179519,63.4916322 41.9281077,63.4691712 C41.4564257,63.5140933 40.9398293,63.7723915 40.378303,64.2440735 C39.0531011,65.344665 37.8289922,66.6249256 36.7059397,68.0848938 C37.3348491,68.2196601 38.1546652,68.2421208 39.1654124,68.1522766 C39.9290881,68.0848935 40.3221506,68.0512024 40.3446116,68.0512024 C40.7713716,67.9613582 41.1195126,67.7367511 41.3890452,67.3773743 C42.197643,65.423263 42.4334805,64.165463 42.0965647,63.6039368 Z M67.7020335,63.5028626 C67.2078904,63.5140933 66.6800636,63.7723915 66.1185374,64.2440735 C64.1868871,65.8388081 62.6370979,67.5907437 61.4691233,69.4999329 C60.3685319,71.2743558 59.7059409,72.8802968 59.4813304,74.317804 C59.4364083,74.6771808 59.5262511,74.9916308 59.7508616,75.2611634 C59.8182448,75.2387023 59.9754698,75.1713202 60.2225413,75.0590149 C61.1434443,74.632255 62.4798568,73.3519943 64.2318186,71.2181946 C65.3997932,69.7582264 66.1522271,68.7587247 66.4891429,68.2196595 L67.0955882,66.939386 C67.7469586,65.0975799 67.949105,63.9520836 67.7020335,63.5028626 Z M102.100959,56.5287415 C101.853888,56.9779625 101.404673,57.4720982 100.753303,58.0111634 C100.034549,58.5726896 99.4730316,58.8534485 99.0687327,58.8534485 C98.3949012,58.8534485 98.0579905,58.2245486 98.0579905,56.9667298 C98.0579905,55.8661383 98.3387494,55.0014009 98.9002757,54.3724915 C99.6864124,53.5414326 100.584841,53.1259095 101.595588,53.1259095 C101.775277,53.1259095 101.921271,53.1483702 102.033576,53.1932923 C102.348031,53.3280586 102.516486,53.7885032 102.538948,54.5746399 C102.538948,55.3383156 102.392953,55.9896763 102.100959,56.5287415 Z M112.309455,62.0204407 C112.309455,63.053649 110.647363,65.5018667 107.323127,69.3651673 C106.155153,70.7128303 104.650285,72.3019257 102.808479,74.1325013 C100.966673,75.9630768 99.8548674,76.9625785 99.4730296,77.1310364 C99.0911917,77.2994943 98.6195168,77.383722 98.0579905,77.383722 C97.7659969,77.383722 97.3560889,77.0636568 96.8282542,76.4235169 C96.3004195,75.783377 96.0365061,75.2387047 96.0365061,74.7894837 C96.0365061,72.6556839 96.6990972,70.1625448 98.0242991,67.3099915 C98.855358,65.5355686 99.7200954,64.0868526 100.618537,62.9638001 C101.31483,62.0653581 101.786505,61.6161438 102.033576,61.6161438 C102.32557,61.6161438 102.62879,61.8295206 102.943244,62.2562806 C103.257699,62.6830405 103.414924,63.109794 103.414924,63.536554 C103.414924,63.7836255 103.055553,64.6034416 102.336799,65.9960266 C101.348513,67.8827548 100.843147,68.8373351 100.820686,68.8597962 C100.101932,70.4769918 99.6302573,71.8358649 99.4056468,72.9364563 C99.3607247,73.1835279 99.338264,73.408135 99.338264,73.6102845 C100.259167,73.2509077 101.348512,72.4872434 102.60633,71.3192688 C103.662,70.2411384 104.717653,69.1742546 105.773323,68.1185852 C107.053602,66.8832275 108.277711,65.2885169 109.445686,63.3344056 C110.299206,61.9193594 110.928106,61.211847 111.332405,61.211847 C111.983775,61.211847 112.309455,61.4813755 112.309455,62.0204407 Z M121.237678,72.8690735 C120.024781,73.8124376 118.340228,74.7670179 116.183967,75.7328431 C113.780635,76.8558955 111.938856,77.4174134 110.658576,77.4174134 C110.276739,77.4174134 109.967904,77.3668768 109.732063,77.265802 C109.496222,77.1647273 109.265999,76.8783532 109.041389,76.4066712 C108.929084,76.316827 108.80555,76.2045234 108.670783,76.0697571 C108.468634,75.9125298 108.260872,75.5138521 108.047492,74.8737122 C107.834112,74.2335723 107.749885,73.7899732 107.794807,73.5429016 C107.817268,73.0487586 108.098027,72.0492568 108.637092,70.5443665 C109.513073,68.7025604 110.490114,67.1696168 111.568244,65.9454895 C112.646375,64.7213623 113.735719,63.7274758 114.836311,62.9638001 C116.161513,62.0653581 117.385622,61.5712224 118.508674,61.4813782 C118.620979,61.4813782 118.722053,61.5038389 118.811897,61.548761 L118.87928,61.548761 C119.058968,61.4589168 119.283575,61.5487597 119.553108,61.8182923 C120.271861,62.604429 120.664924,63.4579361 120.732307,64.3788391 C120.822151,65.4345085 120.631235,66.6249263 120.159553,67.9501282 C120.114631,68.0624335 120.069709,68.1522763 120.024787,68.2196595 C119.845099,68.5790363 119.491343,69.0731719 118.963508,69.7020813 C118.435673,70.3309907 117.138567,70.6454407 115.072151,70.6454407 C113.904176,70.6454407 112.927135,70.4882157 112.140998,70.173761 C111.017946,72.2177166 110.501349,73.6888933 110.591194,74.5873352 C110.905648,74.8344068 111.220098,74.9579407 111.534553,74.9579407 C112.500378,74.9579407 114.173701,74.4750354 116.554573,73.5092102 C118.486223,72.7455345 119.800175,72.1503257 120.496467,71.7235657 C120.766,71.5438773 121.035528,71.4540345 121.305061,71.4540345 C121.70936,71.4540345 121.911506,71.6112595 121.911506,71.9257141 C121.911506,72.2177078 121.686899,72.5321578 121.237678,72.8690735 Z M118.912971,63.6039368 C118.89051,63.5365537 118.834358,63.4916322 118.744514,63.4691712 C118.272832,63.5140933 117.756236,63.7723915 117.194709,64.2440735 C115.869507,65.344665 114.645398,66.6249256 113.522346,68.0848938 C114.151255,68.2196601 114.971071,68.2421208 115.981819,68.1522766 C116.745494,68.0848935 117.138557,68.0512024 117.161018,68.0512024 C117.587778,67.9613582 117.935919,67.7367511 118.205451,67.3773743 C119.014049,65.423263 119.249887,64.165463 118.912971,63.6039368 Z M145.663948,65.4569641 C145.529181,66.3329451 145.124888,67.4110593 144.451057,68.6913391 C143.485232,70.4657621 142.435193,71.9313236 141.30091,73.0880677 C140.166627,74.2448117 139.026746,75.1825465 137.881233,75.9013001 C136.511109,76.75482 135.253309,77.2152646 134.107795,77.2826477 C133.973029,77.2826477 133.849495,77.2377263 133.73719,77.1478821 C133.714729,77.1703432 133.669807,77.1928039 133.602424,77.2152649 C133.422736,77.2826481 133.198129,77.1815749 132.928596,76.9120423 C132.187381,76.1259055 131.794319,75.2723984 131.749397,74.3514954 C131.142948,75.4071647 130.525279,76.5077397 129.896369,77.6532532 C125.741075,85.1777049 123.012099,90.4335117 121.709358,93.4208313 C121.372442,94.2294291 120.99061,94.633722 120.56385,94.633722 C120.182012,94.633722 119.81141,94.2968113 119.452033,93.6229798 C119.137579,93.0389925 118.991584,92.5448568 119.014045,92.1405579 C119.036506,91.6014927 121.810404,86.413068 127.335823,76.5751282 C132.164948,67.9725461 135.444212,62.8515036 137.173713,61.211847 C137.375863,61.0321586 137.679082,60.9423157 138.083381,60.9423157 C139.161512,60.9423157 139.644417,61.1893836 139.532112,61.6835266 C139.509651,61.7958319 139.16151,62.3573497 138.487678,63.368097 C140.23964,62.1102782 141.486209,61.5038389 142.227424,61.548761 C142.766489,61.5712221 143.11463,61.6722953 143.271858,61.8519837 C143.653696,62.0541331 144.170292,62.4359652 144.821662,62.9974915 C145.023812,63.1771799 145.225958,63.5758575 145.428108,64.1935364 C145.630257,64.8112153 145.70887,65.2323537 145.663948,65.4569641 Z M143.069709,64.6820618 C143.137092,64.2777629 143.036019,63.9520826 142.766487,63.705011 C142.654181,63.6151668 142.272349,63.6488579 141.620979,63.8060852 C140.655154,64.1879231 139.150286,65.5131051 137.10633,67.7816712 C135.286985,69.8031657 134.208871,71.3080334 133.871955,72.2963196 C133.400273,73.7338268 133.31043,74.6996375 133.602424,75.1937806 C133.647346,75.2836248 133.737189,75.3397765 133.871955,75.3622376 C133.894416,75.3622376 133.928107,75.3510072 133.97303,75.3285462 C134.422251,75.2836241 134.635627,75.2387027 134.613166,75.1937806 C134.613166,75.2162416 134.624397,75.227472 134.646858,75.227472 C134.983773,75.1376278 135.354375,74.9467117 135.758674,74.6547181 C137.757708,73.1498277 139.386109,71.487735 140.643928,69.6683899 C142.014052,67.6468954 142.822638,65.9848027 143.069709,64.6820618 Z M169.315315,63.0648743 L169.180549,62.9301087 L168.911018,62.9301087 C168.866096,62.9301087 168.832405,62.941339 168.809944,62.9638001 C168.383184,63.3456379 168.091194,64.35637 167.933967,65.9960266 C167.821662,67.051696 167.889044,67.871512 168.136116,68.4554993 C168.630259,67.6918236 168.9784,66.916929 169.180549,66.1307923 C169.584848,64.6034409 169.629769,63.5814785 169.315315,63.0648743 Z M166.586311,70.5443665 C166.047246,69.7806908 165.822639,68.6351944 165.912483,67.1078431 C165.979866,66.2992453 166.204473,65.3671257 166.586311,64.3114563 C164.879271,65.951113 163.542859,67.6019754 162.577033,69.2640931 C161.319215,71.4652759 160.600472,73.2509026 160.420783,74.6210266 C160.375861,75.0702476 160.499395,75.4183887 160.791389,75.6654602 C160.903694,75.7328434 161.285526,75.6766916 161.936897,75.4970032 C162.880261,75.0253212 164.306516,73.5429141 166.215705,71.0497376 L166.586311,70.5443665 Z M190.237678,63.0648743 L190.102912,62.9301087 L189.833381,62.9301087 C189.788459,62.9301087 189.754768,62.941339 189.732307,62.9638001 C189.305547,63.3456379 189.013558,64.35637 188.85633,65.9960266 C188.744025,67.051696 188.811407,67.871512 189.058479,68.4554993 C189.552622,67.6918236 189.900763,66.916929 190.102912,66.1307923 C190.507211,64.6034409 190.552133,63.5814785 190.237678,63.0648743 Z M187.508674,70.5443665 C186.969609,69.7806908 186.745002,68.6351944 186.834846,67.1078431 C186.902229,66.2992453 187.126836,65.3671257 187.508674,64.3114563 C185.801634,65.951113 184.465222,67.6019754 183.499397,69.2640931 C182.241578,71.4652759 181.522835,73.2509026 181.343147,74.6210266 C181.298225,75.0702476 181.421759,75.4183887 181.713752,75.6654602 C181.826057,75.7328434 182.20789,75.6766916 182.85926,75.4970032 C183.802624,75.0253212 185.228879,73.5429141 187.138069,71.0497376 L187.508674,70.5443665 Z M228.679573,65.4569641 C228.544806,66.3329451 228.140513,67.4110593 227.466682,68.6913391 C226.500857,70.4657621 225.450818,71.9313236 224.316535,73.0880677 C223.182252,74.2448117 222.042371,75.1825465 220.896858,75.9013001 C219.526734,76.75482 218.268934,77.2152646 217.12342,77.2826477 C216.988654,77.2826477 216.86512,77.2377263 216.752815,77.1478821 C216.730354,77.1703432 216.685432,77.1928039 216.618049,77.2152649 C216.438361,77.2826481 216.213754,77.1815749 215.944221,76.9120423 C215.203006,76.1259055 214.809944,75.2723984 214.765022,74.3514954 C214.158573,75.4071647 213.540904,76.5077397 212.911994,77.6532532 C208.7567,85.1777049 206.027724,90.4335117 204.724983,93.4208313 C204.388067,94.2294291 204.006235,94.633722 203.579475,94.633722 C203.197637,94.633722 202.827035,94.2968113 202.467658,93.6229798 C202.153204,93.0389925 202.007209,92.5448568 202.02967,92.1405579 C202.052131,91.6014927 204.826029,86.413068 210.351448,76.5751282 C215.180573,67.9725461 218.459837,62.8515036 220.189338,61.211847 C220.391488,61.0321586 220.694707,60.9423157 221.099006,60.9423157 C222.177137,60.9423157 222.660042,61.1893836 222.547737,61.6835266 C222.525276,61.7958319 222.177135,62.3573497 221.503303,63.368097 C223.255265,62.1102782 224.501834,61.5038389 225.243049,61.548761 C225.782114,61.5712221 226.130255,61.6722953 226.287483,61.8519837 C226.669321,62.0541331 227.185917,62.4359652 227.837287,62.9974915 C228.039437,63.1771799 228.241583,63.5758575 228.443733,64.1935364 C228.645882,64.8112153 228.724495,65.2323537 228.679573,65.4569641 Z M226.085334,64.6820618 C226.152717,64.2777629 226.051644,63.9520826 225.782112,63.705011 C225.669806,63.6151668 225.287974,63.6488579 224.636604,63.8060852 C223.670779,64.1879231 222.165911,65.5131051 220.121955,67.7816712 C218.30261,69.8031657 217.224496,71.3080334 216.88758,72.2963196 C216.415898,73.7338268 216.326055,74.6996375 216.618049,75.1937806 C216.662971,75.2836248 216.752814,75.3397765 216.88758,75.3622376 C216.910041,75.3622376 216.943732,75.3510072 216.988655,75.3285462 C217.437876,75.2836241 217.651252,75.2387027 217.628791,75.1937806 C217.628791,75.2162416 217.640022,75.227472 217.662483,75.227472 C217.999398,75.1376278 218.37,74.9467117 218.774299,74.6547181 C220.773333,73.1498277 222.401734,71.487735 223.659553,69.6683899 C225.029677,67.6468954 225.838263,65.9848027 226.085334,64.6820618 Z M239.999885,72.8690735 C238.786988,73.8124376 237.102435,74.7670179 234.946174,75.7328431 C232.542842,76.8558955 230.701063,77.4174134 229.420783,77.4174134 C229.038946,77.4174134 228.730111,77.3668768 228.49427,77.265802 C228.258429,77.1647273 228.028206,76.8783532 227.803596,76.4066712 C227.691291,76.316827 227.567757,76.2045234 227.432991,76.0697571 C227.230841,75.9125298 227.023079,75.5138521 226.8097,74.8737122 C226.59632,74.2335723 226.512092,73.7899732 226.557014,73.5429016 C226.579475,73.0487586 226.860234,72.0492568 227.399299,70.5443665 C228.27528,68.7025604 229.252321,67.1696168 230.330451,65.9454895 C231.408582,64.7213623 232.497926,63.7274758 233.598518,62.9638001 C234.92372,62.0653581 236.147829,61.5712224 237.270881,61.4813782 C237.383186,61.4813782 237.48426,61.5038389 237.574104,61.548761 L237.641487,61.548761 C237.821175,61.4589168 238.045782,61.5487597 238.315315,61.8182923 C239.034068,62.604429 239.427131,63.4579361 239.494514,64.3788391 C239.584358,65.4345085 239.393442,66.6249263 238.92176,67.9501282 C238.876838,68.0624335 238.831917,68.1522763 238.786994,68.2196595 C238.607306,68.5790363 238.25355,69.0731719 237.725715,69.7020813 C237.19788,70.3309907 235.900774,70.6454407 233.834358,70.6454407 C232.666383,70.6454407 231.689342,70.4882157 230.903205,70.173761 C229.780153,72.2177166 229.263556,73.6888933 229.353401,74.5873352 C229.667855,74.8344068 229.982305,74.9579407 230.29676,74.9579407 C231.262585,74.9579407 232.935908,74.4750354 235.31678,73.5092102 C237.24843,72.7455345 238.562382,72.1503257 239.258674,71.7235657 C239.528207,71.5438773 239.797735,71.4540345 240.067268,71.4540345 C240.471567,71.4540345 240.673713,71.6112595 240.673713,71.9257141 C240.673713,72.2177078 240.449106,72.5321578 239.999885,72.8690735 Z M237.675178,63.6039368 C237.652717,63.5365537 237.596565,63.4916322 237.506721,63.4691712 C237.035039,63.5140933 236.518443,63.7723915 235.956916,64.2440735 C234.631714,65.344665 233.407606,66.6249256 232.284553,68.0848938 C232.913462,68.2196601 233.733278,68.2421208 234.744026,68.1522766 C235.507701,68.0848935 235.900764,68.0512024 235.923225,68.0512024 C236.349985,67.9613582 236.698126,67.7367511 236.967658,67.3773743 C237.776256,65.423263 238.012094,64.165463 237.675178,63.6039368 Z" transform="rotate(-22 121.12 68.878)"/>
  </g>
</svg>
