<svg xmlns="http://www.w3.org/2000/svg" width="1440" height="224" viewBox="0 0 1440 224">
  <g fill="none" fill-rule="evenodd" transform="translate(-10)">
    <ellipse cx="870.717" cy="188.321" fill="#F2F2F2" opacity=".2" rx="177.762" ry="177.877"/>
    <path fill="#E5B467" d="M1122.32735,57.5769006 L1122.3648,55.9436808 L1122.39841,57.5721028 C1122.60001,57.5584957 1122.8046,57.5447267 1123.01207,57.5308071 C1123.93633,57.4682229 1124.8848,57.4325567 1126.57995,57.480336 C1127.25936,57.6061772 1127.71409,57.8369981 1128.27309,58.1169442 C1128.82939,58.3982362 1130.25816,59.232691 1131.44611,59.9695684 C1131.44611,59.9695684 1135.48634,62.4817702 1141.37029,65.2467443 L1161.78204,63.6646162 L1162.49975,32.1811993 L1160.94465,31.4327747 L1162.76683,31.1564813 L1162.97843,29.7871761 L1163.09779,23.6557075 L1163.34368,29.7887353 L1163.35428,31.0342386 C1163.35428,31.0342386 1166.35758,30.804098 1167.04569,29.3081843 L1167.04569,28.4699488 L1166.68699,28.3804497 L1166.62684,28.050831 L1166.32797,27.96102 L1166.32797,26.6743534 L1166.59723,26.5246685 L1166.68699,25.207753 L1167.49383,25.0880051 L1167.70325,24.3102671 L1167.70325,22.5143599 L1168.06258,22.5143599 L1168.33153,24.2204562 L1168.33153,16.5590829 L1166.50717,15.0924825 L1168.15202,14.3147446 L1168.84013,12.3688406 L1169.3185,13.6857561 L1169.64728,13.6857561 L1171.08302,12.1595936 L1171.08302,10.9025521 C1171.08302,10.9025521 1170.11039,10.2292818 1169.94677,9.88500643 C1169.87915,9.74280575 1169.86138,9.40383177 1169.91654,9.2566416 C1170.12316,8.70592582 1171.32237,7.37123526 1171.32237,7.37123526 L1171.32237,6.5329997 C1171.32237,6.5329997 1171.04968,6.37240025 1171.05311,6.17406773 C1171.05809,5.91180727 1171.32237,5.75494994 1171.32237,5.75494994 L1171.47195,4.97690019 L1171.47195,2.79212401 C1171.47195,2.79212401 1169.81744,2.42757885 1169.30541,1.20577567 L1168.66062,1.20577567 L1168.70519,0.581152966 L1168.98598,0.766388058 L1169.15395,0.308289826 L1169.48305,0.308289826 L1169.86045,0.777614427 L1170.25312,0.569926597 L1170.0063,1.1873769 C1170.0063,1.1873769 1169.66411,1.20421646 1169.42882,1.19860327 C1169.63077,1.79890218 1170.39928,2.39920109 1171.47507,2.67424713 L1171.47538,2.21427784 L1171.02693,2.20305147 L1170.62304,1.54100753 L1170.98735,1.54880362 L1171.25131,1.71470441 L1171.32984,1.37230015 L1171.73342,1.37230015 L1171.81196,1.71470441 L1172.07592,1.54880362 L1172.44023,1.54100753 L1172.03634,2.20305147 L1171.58757,2.21427784 L1171.58789,2.67424713 C1172.6643,2.39920109 1173.4325,1.79890218 1173.63445,1.19860327 C1173.39915,1.20421646 1173.05666,1.1873769 1173.05666,1.1873769 L1173.08502,0.558700228 L1173.40102,0.772313086 L1173.58022,0.308289826 L1173.909,0.308289826 L1174.24651,0.769818337 L1174.63264,0.581152966 L1174.40265,1.20577567 L1173.75786,1.20577567 C1173.24551,2.42757885 1171.59131,2.79212401 1171.59131,2.79212401 L1171.7409,4.97690019 L1171.7409,5.75494994 C1171.7409,5.75494994 1172.00518,5.91180727 1172.01047,6.17406773 C1172.0139,6.37240025 1171.7409,6.5329997 1171.7409,6.5329997 L1171.7409,7.37123526 C1171.7409,7.37123526 1172.93979,8.70592582 1173.14641,9.2566416 C1173.20188,9.40383177 1173.18381,9.74280575 1173.11649,9.88500643 C1172.95257,10.2292818 1171.97993,10.9025521 1171.97993,10.9025521 L1171.97993,12.1595936 L1173.41536,13.6857561 L1173.74446,13.6857561 L1174.22314,12.3688406 L1174.91094,14.3147446 L1176.55579,15.0924825 L1174.73174,16.5590829 L1175.00069,24.2204562 L1175.00069,22.5143599 L1175.3597,22.5143599 L1175.56913,24.4895772 L1175.56913,25.0880051 L1176.37628,25.207753 L1176.46603,26.5246685 L1176.73529,26.6743534 L1176.73529,27.96102 L1176.43674,28.050831 L1176.37628,28.3804497 L1176.01758,28.4699488 L1176.01758,29.3081843 C1176.70538,30.804098 1179.70899,31.0342386 1179.70899,31.0342386 L1179.92029,29.7943485 L1179.96516,23.6557075 L1180.26434,29.7871761 L1180.29613,31.1564813 L1182.1183,31.4327747 L1180.56352,32.1811993 L1181.40059,63.6739715 L1181.40059,64.2415268 L1201.07929,65.7003311 L1201.27376,63.8217853 L1201.43799,66.1194489 L1205.80474,69.7702018 L1205.80474,64.4432896 C1205.80474,64.4432896 1205.1802,64.2184504 1205.16493,64.027914 C1205.14997,63.8383131 1205.7449,63.7397705 1205.7449,63.7397705 L1206.04408,62.5276345 L1206.70165,61.9890806 L1206.70165,60.5524172 L1206.70165,60.193797 L1207.06066,60.193797 L1207.35984,58.9963177 L1207.35984,57.9341784 L1207.18033,57.6946825 L1207.35984,57.3950008 L1207.53934,53.3850041 L1207.53934,57.3803442 L1207.68862,57.6647455 L1207.50942,57.9036177 L1207.56895,58.9810373 L1207.94292,60.193797 L1208.33185,60.1785167 L1208.33185,61.9588317 L1209.15428,62.4976975 L1209.42322,63.6646162 C1209.42322,63.6646162 1210.06085,63.8121182 1210.06646,64.0241718 C1210.07269,64.2780125 1209.49833,64.4133526 1209.49833,64.4133526 L1209.46717,72.0485311 L1211.21652,90.7370102 C1226.02852,94.5644653 1246.94455,93.8943391 1256.43782,92.9594653 C1257.41388,92.8639068 1268.803,87.7945941 1269.7434,87.7050921 C1273.79561,87.3443923 1277.17515,88.050987 1280.48406,88.7555629 C1283.97055,89.4991698 1285.85539,89.5577162 1285.85539,89.5577162 C1287.39044,89.6068414 1291.06327,89.6351052 1292.14628,89.5644457 C1293.22862,89.4917674 1295.3711,89.470906 1299.015,89.5799235 C1300.55072,89.6270298 1303.05712,89.7730594 1306.40841,90.1606771 C1307.48604,90.6801925 1309.52762,91.4742704 1310.94495,91.9264911 L1317.5789,94.0422377 C1318.99422,94.4951313 1321.89615,95.5126278 1322.79754,95.7542159 C1323.69826,95.9971499 1325.64432,96.4561 1328.26911,97.0240676 C1329.74766,97.3416988 1332.7774,98.0220486 1335.28514,98.3914967 C1338.70975,98.6283742 1340.04973,98.6330849 1340.04973,98.6330849 C1341.58747,98.6391414 1344.09925,98.5846326 1345.63363,98.5106084 C1345.63363,98.5106084 1347.28774,98.4325465 1349.57149,97.8605412 C1351.10654,97.7972842 1353.61698,97.6795184 1355.14866,97.5940541 L1359.80965,97.33968 C1361.34269,97.2555615 1364.80765,96.8854405 1365.66397,96.6411606 C1366.51693,96.3975536 1368.42263,95.9345658 1369.9005,95.612224 L1372.5078,95.0456023 C1373.98366,94.7232605 1376.39185,94.1781731 1377.86232,93.8356429 C1377.86232,93.8356429 1379.36441,93.4843643 1380.19921,93.4036106 C1380.19921,93.4036106 1383.17984,93.4406227 1384.07518,93.4937856 C1392.94579,94.1054948 1400.83227,95.7387381 1405.76233,96.353812 C1413.64007,97.3766921 1426.78891,97.3766921 1426.78891,97.3766921 C1428.32329,97.3766921 1432.02773,97.3975534 1433.13765,97.4244713 C1434.24891,97.4493704 1435.57813,97.4863825 1438.87761,97.5940541 C1439.89672,97.6277014 1440.66963,97.7239329 1441.61003,97.8423717 C1442.5538,97.9581186 1444.5826,98.0765574 1446.11832,98.0994376 L1450,98.2750768 L1450,184.873989 L310.608312,184.873989 L310.608312,115.941968 C317.109076,116.761618 322.710468,118.905629 328.895073,120.304013 C341.063152,123.056368 354.904182,121.599437 367.184599,120.011281 C373.173454,119.236719 379.105132,118.278442 385.083225,117.470232 C391.984232,116.535508 398.404275,114.822857 405.088007,113.411686 C411.591461,112.038873 418.723197,112.258254 425.445945,111.614916 C432.779485,110.911686 439.930056,108.523396 446.755723,106.728645 C453.139441,105.048969 459.576973,103.516667 466.301066,102.529454 C473.646713,101.450046 481.389914,101.624339 488.874134,101.608862 C495.257179,101.594057 501.554121,101.42582 507.883352,100.864582 C515.360844,100.203074 521.948384,98.0375297 529.159496,96.7898853 C541.95922,94.5745424 555.50898,97.6128999 568.148607,98.9291851 C581.426605,100.312765 592.857429,105.421109 606.310323,106.38948 C620.415043,107.404285 635.041089,103.910342 648.964186,102.946008 C656.154445,102.447354 663.247166,102.645201 670.160954,104.082616 C678.17928,105.752199 686.23124,107.136452 694.544872,108.020704 C709.768256,109.635105 725.210261,109.466195 740.211661,107.079924 C746.061945,106.149238 754.699808,104.053007 754.699808,104.053007 C756.162211,103.698363 757.87485,103.485039 759.191954,103.555698 C774.615124,102.990423 802.619397,101.499844 802.619397,101.499844 C804.151758,101.417745 806.664885,101.380732 808.197919,101.415053 C808.197919,101.415053 819.568201,101.666062 825.46759,101.481675 C825.46759,101.481675 828.30562,101.458121 829.300512,101.502536 C830.294058,101.550315 831.958264,101.646547 834.976572,101.985712 C834.976572,101.985712 837.186993,102.128377 838.130761,102.149238 C839.071838,102.172119 841.093909,102.104151 842.62358,101.997152 L859.534714,100.812765 C861.063039,100.705093 863.812948,100.026762 864.357818,99.838337 C864.902014,99.6485658 865.348,99.4917691 865.899596,99.3067085 C870.79804,97.6344343 876.749899,95.6377993 876.749899,95.6377993 C878.154451,95.1660632 881.040914,94.2407605 881.747226,94.0597377 C882.45152,93.876696 883.028678,93.7273017 884.672032,93.3888091 C885.586202,93.2071133 886.373908,93.1317432 887.336511,93.0382035 C888.299786,92.9453368 889.844928,92.7710434 890.772552,92.6512588 C891.698157,92.5294553 894.824094,92.2124971 895.872127,92.0711781 C896.918141,91.9298592 899.000754,91.6088633 900.502172,91.356508 L913.497645,89.1727937 C914.999736,88.9211114 918.505736,88.3726592 919.51408,88.1943282 C920.523771,88.0146512 922.558623,87.6283794 924.037842,87.3369932 L926.812641,86.6028076 C927.43285,86.4507215 928.156652,86.3632383 929.041224,86.2575856 C929.925796,86.1512599 931.858401,85.8026731 933.336948,85.484369 L947.314532,82.4756212 C948.789716,82.1552982 951.103729,81.173468 951.556442,80.9285151 C952.008482,80.6842352 952.377109,80.4830239 952.883636,80.2488382 C957.506282,78.1398211 963.744701,75.6250167 963.744701,75.6250167 C965.098803,75.0779104 967.993338,73.9897545 968.877237,73.7333615 C969.761137,73.4742768 971.677597,72.9648556 973.135964,72.5987722 C973.135964,72.5987722 977.873638,71.4083283 984.737648,70.2643177 C985.688815,70.107521 986.308352,69.9063097 987.06377,69.6606839 C987.820533,69.4143851 989.558061,68.7797957 990.923598,68.2481673 C990.923598,68.2481673 993.955359,67.0725282 1001.01243,67.0180195 C1001.95283,67.0812765 1003.97289,67.2320167 1005.50121,67.3531473 C1005.50121,67.3531473 1012.32621,67.8948699 1018.40318,68.5725279 C1018.40318,68.5725279 1021.04075,68.7367271 1022.01681,68.7077904 C1022.99287,68.6795266 1025.04386,68.5745468 1026.57555,68.4736047 C1026.57555,68.4736047 1058.91389,66.3565122 1077.19662,65.1600117 C1078.15518,65.0954087 1079.12048,65.0334976 1082.47445,64.8053684 C1083.23391,64.6788543 1086.10221,64.1997158 1087.12602,64.030133 C1088.14782,63.8578585 1090.14366,63.3491102 1091.55763,62.8982355 L1099.03579,60.5180205 C1100.45245,60.0664728 1103.44722,59.3531486 1103.9598,59.2104838 C1104.47171,59.067146 1104.89146,58.9507261 1106.19444,58.5718567 C1106.24758,58.5718567 1108.72976,58.4991784 1109.83094,58.4372672 C1110.93009,58.376029 1113.08199,58.2326912 1114.61099,58.119636 C1114.61099,58.119636 1117.65697,57.892352 1122.32735,57.5769006 Z M1340.17588,49.3619985 L1340.17463,49.4923492 L1339.96209,49.3619985 L1340.17588,49.3619985 Z"/>
    <path fill="#A28148" d="M113.808571,102.541025 C101.782624,102.974023 89.7881945,103.266796 79.6794658,103.244083 C78.1134898,103.241384 75.7992569,103.296024 73.7918884,103.366178 L63.3101366,103.384391 C61.3027682,103.31626 59.000845,103.265668 58.1910393,103.27039 C42.9304668,103.381692 2.25268419,104.127514 0,104.002046 L0,240.897787 L1460,240.897787 L1460,108.61424 C1458.76111,108.420642 1410.24822,105.170621 1410.24822,105.170621 C1408.26723,104.999957 1402.91249,104.705175 1401.49423,104.760489 C1400.07685,104.816478 1397.31067,105.035034 1395.34463,105.244822 L1343.1891,111.402189 C1341.22306,111.611976 1338.45072,111.807598 1337.02543,111.835255 C1334.88266,111.752959 1332.73373,111.734746 1332.73373,111.734746 C1332.2554,111.761053 1330.23573,111.902711 1328.24506,112.047066 L1287.07598,113.375271 C1285.06598,113.371224 1282.79043,113.364478 1282.01756,113.357733 C1265.79682,113.271389 1250.65407,113.152667 1236.47236,114.026894 C1221.1942,115.059643 1206.85335,115.655278 1191.08632,115.935219 C1189.5476,115.962202 1187.23336,115.963551 1185.226,115.953432 C1180.5351,115.819195 1179.52658,115.82729 1179.52658,115.82729 C1177.51745,115.845503 1174.26065,116.021563 1172.28933,116.221906 L1149.71061,117.494798 C1147.71819,117.623638 1145.48309,117.737638 1144.7445,117.748431 C1135.92193,117.826006 1128.056,117.63578 1121.73319,117.078595 C1099.81304,115.24717 1057.04809,113.93448 1057.04809,113.93448 C1055.04248,113.873095 1051.8015,113.632278 1049.84337,113.40023 L1042.14977,112.478783 C1040.19516,112.244712 1038.03744,112.002545 1037.85367,111.983658 C1037.66815,111.966119 1036.14877,111.79748 1034.47728,111.609952 C1031.843,111.416354 1029.73275,111.383301 1027.72363,111.383301 C1027.72363,111.383301 1024.82204,111.380603 1022.44362,111.290212 C1021.47643,111.245691 1019.46642,111.045347 1017.50654,110.82814 L1007.42133,109.79674 C1005.45617,109.591 1003.22723,109.387283 1002.47545,109.34681 C992.11416,108.884063 982.017527,108.89688 972.027286,109.180869 C970.627492,109.223366 968.39591,109.160632 966.397334,109.059448 C966.397334,109.059448 960.019125,108.739708 956.408852,108.74443 C955.361644,108.763317 953.291847,108.877992 951.298547,109.001436 L942.8523,110.170445 C940.914394,110.439594 938.892078,110.707394 938.353966,110.763382 C934.40957,111.179584 930.592669,111.554639 930.592669,111.554639 C928.62135,111.748237 926.57969,111.952628 926.058285,112.006593 C920.649029,112.633257 912.581746,113.457567 912.581746,113.457567 C910.612187,113.657911 907.364171,113.90345 905.362958,114.00261 C905.362958,114.00261 903.545511,114.093001 900.79604,114.229936 C897.780152,114.27783 895.972377,114.279854 893.962371,114.298741 C893.962371,114.298741 889.704077,114.333144 886.7216,114.489641 C885.719235,114.555748 883.712746,114.787121 881.76253,115.033335 C881.76253,115.033335 875.896055,115.774674 870.441956,116.199646 C869.290995,116.288013 867.187786,116.505221 865.227898,116.725801 C856.14682,116.874204 850.416631,116.965269 845.264122,117.20811 C843.924118,117.27759 841.761119,117.500194 839.806507,117.732917 L831.334761,119.361974 C829.388941,119.616957 827.618975,119.918485 827.395641,120.030462 C825.921988,120.708392 822.666059,120.909411 822.666059,120.909411 C820.67188,121.03218 818.725181,121.214986 818.346217,121.315495 C816.379294,122.066953 815.577402,122.448078 815.497389,122.481131 C815.417375,122.512835 813.817108,122.835274 811.94075,123.195488 C811.94075,123.195488 804.572486,124.614759 798.13097,125.426927 C772.801022,128.483349 748.134922,131.564056 719.009175,131.794755 C717.481007,131.801501 715.18348,131.71111 713.184025,131.601157 C713.184025,131.601157 710.297389,131.440612 708.069324,131.027783 C704.474877,130.357272 699.893892,130.70332 699.893892,130.70332 C697.906747,130.856445 695.457986,130.973144 695.149363,130.970445 C694.838981,130.965049 692.962624,130.828114 690.978996,130.662847 L665.536502,129.140369 C663.529133,129.081683 661.063666,128.965659 660.752405,128.938676 C660.436748,128.911019 658.598199,128.667504 656.66381,128.398355 L605.789373,125.267056 C603.796952,125.130121 600.607848,125.282571 598.705112,125.604335 C598.705112,125.604335 584.112783,128.074567 573.810402,127.66646 C563.168623,127.208435 552.529483,125.83436 545.706364,124.23161 C543.419389,123.69601 543.239139,123.633277 543.239139,123.633277 C541.596666,123.053831 539.097787,122.259202 537.688321,121.866609 C536.277975,121.472667 534.743653,121.090867 534.743653,121.090867 C532.826849,120.78799 526.191894,119.981219 524.339277,119.764686 C522.484901,119.546803 519.371413,119.169051 517.422956,118.924861 C517.422956,118.924861 509.027707,117.874574 502.901848,117.15482 C491.288478,115.85832 478.036153,113.892657 478.036153,113.892657 C476.109678,113.60597 474.024934,113.321306 473.407688,113.26262 C471.133901,112.840346 470.477967,112.603577 470.448951,112.534097 C469.950406,111.768474 468.33695,111.40826 464.798776,111.232874 C464.287922,111.206567 457.776943,110.971146 457.776943,110.971146 C456.355167,110.411263 448.841824,110.53673 447.378722,110.999477 C445.914741,111.464248 443.724485,112.114522 442.508457,112.447079 C438.909614,112.741186 435.765352,112.938157 432.507665,113.10275 C431.136007,113.169531 428.901788,113.174927 426.890902,113.143898 L413.871583,113.516254 C411.892352,113.695686 409.663408,113.859604 408.918668,113.876468 C403.532273,113.999237 398.248753,114.134824 398.248753,114.134824 C396.242263,114.18609 393.01535,114.008007 391.075686,113.740207 L364.419802,111.302354 C362.581253,110.895595 359.917071,110.518517 358.50145,110.46118 C356.312073,110.605535 354.280965,110.620376 352.273596,110.596766 C352.273596,110.596766 348.185001,110.552245 344.625725,110.241274 C343.39387,110.134694 341.235268,110.175842 339.23933,110.28512 L333.31922,110.27028 C331.572114,110.768104 326.877703,110.355274 326.047675,110.098942 C325.218525,109.843285 323.763337,109.679367 323.452955,109.705 C320.08448,109.779876 318.205485,109.615959 316.220977,109.454739 L305.250445,108.576062 L305.250445,98.5382849 L304.987702,94.3661462 L305.250445,93.5199651 L304.949411,91.2371203 L305.174677,90.6300705 L304.911527,88.459133 L302.284506,86.9261916 L302.227069,85.569551 L301.758613,85.3301071 L301.758613,83.9887834 L301.138621,83.9887834 L301.157767,82.6158881 L300.387461,81.7378228 L300.162602,77.9861176 L299.881529,81.7537649 L298.979241,82.5840039 L298.979241,83.9731539 L298.379617,83.9887834 L298.379617,85.2660261 L297.853724,85.5214121 L297.853724,86.9583884 L296.276045,87.6288939 L296.276045,89.4172213 L290.869653,86.9583884 L271.646245,86.9583884 L269.667323,90.5647392 L269.618033,89.0336734 L266.990197,86.9583884 L266.915244,86.2241145 L266.463489,84.3717061 L264.612883,82.0722941 L264.287408,77.0924228 L263.985967,82.0722941 L262.23394,84.2654255 L262.258789,86.1819148 L261.808256,86.9908977 L259.081026,88.7882902 L259.055363,91.0770742 L252.846484,91.0770742 L252.646066,88.8420557 L249.192933,88.0758976 L232.896766,88.0758976 L225.537114,90.5666148 L223.059592,93.8231774 L211.570193,96.5692805 L202.558317,93.95384 L202.558317,90.439078 L202.508212,78.4331213 L201.606739,77.6669632 L201.606739,65.4056204 L200.605872,55.891006 L199.855528,65.299965 L199.855528,67.0448424 L198.17764,66.7688254 L198.17764,61.3616436 L197.727514,56.3589532 L197.276982,52.1021026 L194.799459,29.237707 L192.695887,52.1021026 L192.320307,56.3380097 L191.870182,61.3403875 L191.419649,66.7688254 L189.742576,67.0448424 L189.742576,65.299965 L188.990601,55.891006 L187.989734,65.4056204 L187.989734,77.6669632 L187.089484,78.4331213 L187.089484,90.439078 L165.462284,90.439078 L165.512389,91.1186487 L162.958284,89.2887468 L128.716169,89.2887468 L121.907259,89.2887468 L117.902161,93.3771114 L117.902161,98.5382849 L114.587528,98.5382849 C114.398923,96.7165104 114.266941,95.4270767 114.266126,95.3936295 C113.954708,85.3455509 113.844166,93.1534587 113.808571,102.541025 Z"/>
    <path fill="#806639" d="M1460,159.467635 C1457.02104,159.394783 1411.6918,158.20891 1396.2756,157.251712 C1381.82571,156.293839 1375.087,154.747752 1360.6336,154.231715 C1337.51325,153.422245 1292.3268,155.62805 1265.35701,155.406795 C1233.56445,155.112688 1202.93867,150.307136 1202.93867,150.307136 C1201.7244,150.116236 1195.78671,149.680471 1194.46604,149.518577 C1193.14011,149.356684 1190.05212,149.14757 1190.06531,149.055156 C1190.08114,148.962742 1188.6409,148.794777 1186.87357,148.680102 C1186.87357,148.680102 1183.19119,148.444681 1179.58883,148.239615 C1165.0308,147.41598 1147.19749,147.660844 1131.3056,147.566406 C1116.45477,147.478714 1102.86128,146.784593 1089.99935,146.064165 C1076.42346,145.304613 1063.05947,144.885038 1047.77867,144.678623 C1040.559,144.581487 1033.6163,144.360231 1026.59008,144.170681 C1019.30358,143.974384 1012.76359,143.196619 1005.60019,142.94973 C993.670288,142.53825 979.810389,140.884233 971.008039,140.007308 C960.660815,138.977258 956.389332,139.474407 949.093167,138.180604 C948.59726,138.092237 945.099533,137.831858 945.099533,137.831858 C943.39815,137.705041 940.570424,137.504023 938.820681,137.387324 C938.820681,137.387324 936.310372,137.218685 929.524182,137.382602 C921.008474,137.590366 912.877005,137.898639 903.986728,137.715159 C900.942702,137.554614 895.549273,137.567431 893.827667,137.607905 C892.103423,137.647704 890.228824,137.869633 889.660817,138.098308 C889.660817,138.098308 889.264267,138.258179 886.877934,138.46257 C884.219028,138.944879 882.813958,139.251128 881.618154,139.394135 L877.466251,139.599875 C873.654625,139.844065 870.792608,140.036314 869.021763,140.150314 L852.381619,141.521016 C851.116353,141.707194 849.211859,141.991858 848.15322,142.153077 C844.583393,142.541623 841.816337,142.744665 839.96372,142.837754 L810.067734,144.555179 C808.228306,144.651641 805.550935,144.945073 805.286276,145.02602 C805.021616,145.106967 803.301768,145.253346 801.464098,145.350483 C801.464098,145.350483 779.757613,146.498581 773.013629,147.382252 C756.635507,149.518577 694.72538,150.910191 694.72538,150.910191 C692.750544,150.955386 689.559681,151.046452 687.630568,151.114582 L677.273672,151.447814 C675.360385,151.521341 672.151058,151.588796 670.14281,151.598915 C670.14281,151.598915 627.550197,151.801957 607.320882,151.286594 C597.69114,151.065339 585.169487,150.475775 573.604478,150.697031 C561.087221,150.917611 548.558533,151.580702 542.784381,152.5379 C539.464266,152.940611 536.768431,153.16389 535.042428,153.286659 C535.042428,153.286659 533.152882,153.422245 530.256573,153.864081 C527.369937,154.305242 518.700356,154.305242 513.877572,154.820604 C508.1043,155.410168 491.298854,156.144087 491.298854,156.144087 C489.413703,156.227058 486.263287,156.336336 484.299882,156.387603 C484.299882,156.387603 437.644172,157.607879 409.935805,157.526932 C395.20631,157.48376 380.250843,157.440588 365.529262,157.619346 C355.896883,157.7664 341.917404,158.479408 341.917404,158.479408 C340.069183,158.573846 335.331688,158.774864 333.741971,158.834225 C332.151376,158.896285 329.20407,158.946202 327.195822,158.946202 L290.526837,158.950249 C288.51771,158.950249 285.735706,159.091906 284.342946,159.265268 C265.766655,159.338795 252.349028,160.370869 236.79478,160.563792 C220.637354,160.763461 204.683918,160.449792 188.930077,160.086205 C181.389476,159.912169 173.874374,159.790074 166.171108,159.738133 C158.69909,159.687541 150.796231,159.820429 143.609975,159.556002 C140.2415,159.431209 138.200719,159.259871 134.465589,159.337446 C130.509763,159.418393 126.741221,159.630878 123.052693,159.79682 C116.088892,160.108466 108.520154,160.166478 101.049015,160.188738 C93.7422997,160.210324 86.7820155,160.306786 79.5271767,160.387733 C71.9408538,160.474076 65.1959903,160.161081 58.488056,159.83392 C55.6840709,159.69631 53.9387242,159.655837 53.9387242,159.655837 C51.9647679,159.610642 49.6883435,159.615364 48.8776586,159.665955 C41.6096307,159.831897 37.0066636,160.364798 31.0716057,160.61371 C25.6685049,160.679142 23.0421319,160.75874 21.8340179,160.876113 C12.5788447,161.846802 4.18003927,161.328067 0,161.365842 L0,265.182361 L1460,265.182361 L1460,159.467635 Z"/>
    <path fill="#161616" d="M1007.24496,179.213503 C1004.57361,177.936483 1001.89637,176.694592 999.204414,175.542208 C986.903411,170.27632 975.051194,169.019735 962.398857,170.433736 C951.343579,171.66992 940.395513,174.441321 929.458145,177.406333 C927.2386,174.207746 925.06779,170.926103 922.990484,167.495523 C915.799686,155.607915 903.272723,145.331314 892.683737,149.235351 C889.561184,150.386069 886.716891,152.329155 883.710499,153.935958 C880.716575,155.536455 877.59271,155.837008 874.458344,156.388723 C869.686573,157.222074 862.866571,154.553878 858.606038,158.187837 C856.209325,160.234961 854.487261,163.626166 852.17455,165.901331 C850.586366,167.4682 848.94765,168.998288 847.997364,171.645467 C845.785108,177.803766 846.288797,184.297413 848.179297,190.492625 C836.667879,192.335212 825.195499,194.895428 813.739659,197.479072 C807.172508,198.958284 800.554637,200.499704 793.902895,201.984195 C794.326765,200.805454 794.218382,199.357499 793.741682,197.89417 C795.088918,196.018052 795.24251,193.074094 793.216628,189.70246 C791.281675,186.482157 787.162863,183.866648 785.211678,185.639777 C783.098777,187.557889 779.502436,187.259438 776.472959,187.310617 C773.613872,187.359948 770.608645,187.231047 767.811093,187.554807 C766.428166,186.098042 764.726918,185.249384 762.958102,185.675903 C759.296331,186.560622 756.949386,189.365993 753.561647,190.664728 C750.399737,191.878037 747.016511,192.525508 743.396161,192.652192 C741.724404,192.711441 740.817267,193.631659 740.496986,194.969185 C736.785111,195.594674 733.228184,196.630946 729.943639,198.37156 C725.836073,200.546901 728.971636,207.693496 733.221458,210.594287 C712.633372,210.76628 692.205459,207.009247 672.426016,195.870697 C661.627804,189.788987 651.365571,181.998977 640.350233,176.794687 C628.29884,171.096249 611.895509,205.553798 599.444056,203.29386 C590.360322,201.642661 581.233375,200.814855 572.09535,200.597337 C571.84677,199.981932 571.568791,199.358374 571.259536,198.727286 C567.115164,190.270817 561.937816,186.823915 557.489589,180.125576 C555.573925,177.24405 553.598539,174.115566 551.583777,172.130445 C549.438416,170.015014 546.993795,167.936364 545.019722,164.292947 C541.913575,158.564575 538.91834,155.347816 535.529995,155.311035 C528.446171,155.234321 521.332814,159.323313 516.497385,169.647205 C513.42274,176.208929 509.15105,177.467889 504.822921,178.349581 C502.737282,178.774138 500.610953,179.368939 498.431466,178.987468 C496.781593,178.699526 495.04706,178.422092 493.577662,179.515012 C490.132222,182.073916 482.795731,187.751846 486.735346,201.970317 C487.047485,203.095975 487.414506,204.141564 487.822239,205.1163 C472.16604,204.680746 456.371251,203.323039 440.625925,202.241382 C440.590485,201.165994 440.565623,199.979194 440.207675,199.495435 C439.895288,199.068776 439.488398,199.06247 439.130073,198.841785 C438.798654,198.636862 438.43114,198.475026 438.133848,198.129285 C437.490043,197.376851 436.899396,196.521431 436.186026,196.052737 C435.823106,195.815237 435.452311,195.49892 435.189145,194.885204 C434.952887,194.331387 434.688408,193.963578 434.386522,193.636753 C434.103668,193.329894 433.9501,192.508102 433.755186,191.940625 C433.55371,191.360536 433.305638,190.956997 432.980126,190.799364 C432.293663,190.469386 431.50154,190.801466 430.739606,191.178733 C430.33731,191.375249 429.950108,191.45932 429.541905,191.722041 C429.079888,192.019441 428.632965,192.188634 428.174886,192.416676 C427.8835,192.561698 427.439859,192.743501 427.178005,193.403456 C427.042813,193.747096 426.91287,193.945713 426.756021,194.177958 C426.560451,194.462748 426.377351,194.816896 426.187687,195.124805 C425.868082,195.64079 425.45266,195.972869 425.182931,196.72215 C424.947985,197.373699 424.73929,198.193389 424.729446,198.968942 C424.718945,199.7508 424.884983,200.537913 425.051676,201.041286 C425.081335,201.131383 425.111173,201.219882 425.140944,201.307712 C410.084335,200.567711 395.130094,200.443971 380.444324,201.99484 C374.400616,202.63487 371.776666,198.868241 368.0667,197.127976 C368.359215,191.319862 365.89608,185.062113 361.20972,185.996621 C359.439092,186.349718 357.647463,186.891975 355.847959,187.368026 C355.775112,187.186223 355.703578,187.001267 355.622857,186.828922 C353.405962,182.1115 349.652073,181.858237 346.699495,184.776544 C345.530671,185.931466 344.395972,187.173612 343.25668,188.401045 C342.522966,188.856078 341.889661,189.542306 341.360048,190.394574 C339.792865,191.99402 338.179742,193.462106 336.424865,194.526652 C331.874135,197.282796 331.685924,205.024875 333.887622,209.909307 C319.260956,217.792502 304.607398,224.295907 289.031377,223.005007 C269.49424,221.388419 250.191325,207.240196 231.779998,197.421581 C210.001496,185.80843 188.400799,202.508152 165.558889,204.072724 C144.733522,205.497676 123.317468,196.501727 102.318571,195.436778 C59.3873032,193.257601 21.4493923,176.83849 0,166.268387 L0,265.10391 L10,265.10391 L10,268.747169 L1450,268.75 L1450,265.10391 L1460,265.10391 L1460,146.224615 C1449.36335,141.061389 1428.41366,137.197183 1417.32395,136.029572 C1394.72396,133.651915 1372.22142,149.910873 1350.03687,154.700408 C1337.87692,157.324454 1325.46051,155.988477 1313.23815,157.377839 C1300.19943,158.858912 1289.55167,167.122537 1278.37306,177.617354 C1278.08948,177.883426 1277.80611,178.149811 1277.5229,178.41638 C1277.44967,178.32977 1277.37309,178.257262 1277.29279,178.200733 C1276.61093,177.721529 1275.89952,178.0431 1275.20519,177.954826 C1274.56335,177.873907 1273.87098,177.898078 1273.24161,177.539726 C1271.87853,176.765224 1270.57452,175.765833 1269.18124,175.539892 C1268.47509,175.425346 1267.72628,175.182592 1267.07001,174.332426 C1266.47805,173.564229 1265.90053,173.145977 1265.26919,172.825457 C1264.67789,172.527006 1264.14434,171.223909 1263.62063,170.398964 C1263.08314,169.556155 1262.52006,169.059086 1261.90448,169.055934 C1260.60243,169.049629 1259.33516,170.280215 1258.13024,171.564396 C1257.49431,172.239064 1256.84919,172.703555 1256.22573,173.499074 C1255.51958,174.397581 1254.79571,175.059638 1254.07447,175.835191 C1253.61573,176.328056 1252.90499,177.011131 1252.66413,178.372027 C1252.53879,179.081374 1252.37931,179.535356 1252.17915,180.068155 C1251.9337,180.726009 1251.73222,181.491053 1251.4999,182.185687 C1251.11336,183.342711 1250.49974,184.263286 1250.27201,185.791273 C1250.07382,187.117489 1249.97866,188.715885 1250.21229,190.071526 C1250.44921,191.436625 1250.9926,192.671415 1251.44609,193.409136 C1252.00392,194.314999 1252.54863,195.087399 1253.04346,196.312731 C1253.3083,196.972353 1253.57154,197.545296 1253.85524,198.015891 C1253.42806,198.268659 1252.99884,198.515082 1252.56745,198.754821 C1244.53712,203.216024 1235.83869,202.305554 1227.56456,199.489765 C1227.18211,198.599067 1226.81561,197.692045 1226.46884,196.771506 C1223.79282,189.67046 1221.43035,180.12323 1216.42569,177.865037 C1212.69405,176.176227 1208.79815,177.309579 1205.00177,177.000131 C1201.48705,176.712345 1197.69551,176.798217 1194.25181,175.538765 C1186.79047,172.810212 1179.64991,169.29102 1172.02817,168.494966 C1168.16078,168.090364 1164.06052,167.238609 1160.4656,164.242384 C1157.2282,161.541681 1154.06906,160.06639 1150.60893,158.940774 C1147.37636,157.891747 1144.45395,153.299546 1141.58614,150.40157 C1138.64634,147.42778 1135.56208,145.677854 1132.19085,145.66625 C1125.06479,145.645362 1118.12426,149.981495 1111.5306,154.497108 C1108.05308,156.878307 1104.52291,158.510642 1101.10723,161.307274 C1097.24418,164.474469 1093.27968,166.805383 1089.33112,169.535484 C1086.8184,171.271484 1082.92588,173.67357 1081.61082,178.46846 C1080.92672,180.965701 1080.05275,182.561677 1078.95848,184.437702 C1077.61443,186.748502 1076.50663,189.448431 1075.23843,191.893066 C1075.01547,192.322365 1074.77871,192.74238 1074.53207,193.156583 C1061.50336,195.527005 1048.67047,195.397704 1035.59994,191.54218 C1037.25122,189.184845 1038.73792,186.682375 1040.39009,184.313896 C1042.0741,181.896638 1037.05691,176.035487 1034.37534,177.236055 C1033.97378,177.003472 1033.53626,176.817472 1033.06597,176.692749 C1031.54594,176.288833 1029.95854,175.783855 1028.35055,175.266173 C1028.25267,175.196 1028.15653,175.119955 1028.05771,175.054977 C1025.89923,173.583577 1022.59351,172.613086 1020.83533,170.507266 C1019.00352,168.316754 1015.4511,167.392349 1014.88133,169.50794 C1014.59918,170.557889 1014.22635,171.627624 1013.86987,172.733443 C1012.42508,173.049133 1011.13838,173.69751 1010.07955,174.816929 C1008.89857,176.067747 1007.95228,177.545607 1007.24496,179.213503 Z"/>
  </g>
</svg>
